{"glyphs":{"0":{"ha":908,"x_min":0,"x_max":0,"o":"m 456 -22 b 33 479 168 -22 33 207 b 456 982 33 751 168 982 b 876 479 743 982 876 751 b 456 -22 876 207 743 -22 m 456 168 b 640 479 596 168 640 289 b 456 792 640 669 596 792 b 269 479 315 792 269 669 b 456 168 269 289 315 168 "},"1":{"ha":564,"x_min":0,"x_max":0,"o":"m 475 960 l 475 0 l 239 0 l 239 649 b 36 593 185 593 104 593 l 36 760 b 281 960 218 760 281 856 "},"2":{"ha":807,"x_min":0,"x_max":0,"o":"m 44 610 b 424 982 44 835 164 982 b 769 690 631 982 769 874 b 363 193 769 438 486 315 l 363 190 l 769 190 l 769 0 l 31 0 b 199 329 31 160 114 258 b 533 674 371 472 533 547 b 417 792 533 747 492 792 b 267 610 326 792 267 742 "},"3":{"ha":831,"x_min":0,"x_max":0,"o":"m 47 665 b 429 982 47 849 183 982 b 772 718 608 982 772 888 b 633 508 772 614 711 549 l 633 506 b 800 269 751 468 800 388 b 433 -22 800 81 646 -22 b 19 339 163 -22 19 108 l 242 339 b 417 168 242 228 293 168 b 564 283 517 168 564 211 b 388 411 564 376 499 411 l 339 411 l 339 574 l 382 574 b 536 679 485 574 536 607 b 411 792 536 761 489 792 b 269 665 338 792 269 757 "},"4":{"ha":865,"x_min":0,"x_max":0,"o":"m 464 0 l 464 203 l 29 203 l 29 435 l 464 960 l 700 960 l 700 393 l 842 393 l 842 203 l 700 203 l 700 0 m 203 393 l 464 393 l 464 703 "},"5":{"ha":838,"x_min":0,"x_max":0,"o":"m 488 651 b 806 325 678 651 806 531 b 432 -22 806 94 644 -22 b 18 297 164 -22 25 108 l 254 297 b 418 168 261 228 318 168 b 569 328 507 168 569 222 b 414 489 569 429 515 489 b 268 419 363 489 307 468 l 46 419 l 157 960 l 764 960 l 764 769 l 318 769 l 282 586 l 282 583 b 488 651 335 625 400 651 "},"6":{"ha":858,"x_min":0,"x_max":0,"o":"m 271 567 b 500 654 322 615 390 654 b 831 329 699 654 831 513 b 454 -22 831 117 685 -22 b 35 467 138 -22 35 217 b 446 982 35 814 200 982 b 803 717 632 982 772 871 l 567 717 b 442 806 560 750 529 806 b 271 569 322 806 274 707 l 271 567 m 440 154 b 608 317 543 154 608 224 b 440 478 608 408 543 478 b 271 317 336 478 271 408 b 440 154 271 224 336 154 "},"7":{"ha":757,"x_min":0,"x_max":0,"o":"m 728 960 l 728 783 b 426 0 510 607 426 296 l 176 0 b 478 767 176 307 307 621 l 478 769 l 24 769 l 24 960 "},"8":{"ha":846,"x_min":0,"x_max":0,"o":"m 26 275 b 207 517 26 404 115 476 l 207 519 b 68 722 139 556 68 614 b 424 982 68 888 226 982 b 779 722 621 982 779 888 b 640 519 779 614 707 556 l 640 517 b 821 275 731 476 821 404 b 424 -22 821 78 643 -22 b 26 275 204 -22 26 78 m 424 582 b 571 701 521 582 571 636 b 424 819 571 764 521 819 b 276 701 326 819 276 764 b 424 582 276 636 326 582 m 424 154 b 585 297 525 154 585 219 b 424 438 585 372 525 438 b 263 297 322 438 263 372 b 424 154 263 219 322 154 "},"9":{"ha":858,"x_min":0,"x_max":0,"o":"m 589 393 b 360 306 538 344 469 306 b 29 631 161 306 29 447 b 406 982 29 843 175 982 b 825 493 722 982 825 743 b 414 -22 825 146 660 -22 b 57 243 228 -22 88 89 l 293 243 b 418 154 300 210 331 154 b 589 390 538 154 586 253 l 589 393 m 419 806 b 251 643 317 806 251 736 b 419 482 251 551 317 482 b 589 643 524 482 589 551 b 419 806 589 736 524 806 "},"A":{"ha":968,"x_min":0,"x_max":0,"o":"m 313 207 l 249 0 l -1 0 l 358 993 l 608 993 l 967 0 l 717 0 l 653 207 m 597 397 l 485 764 l 482 764 l 369 397 "},"Á":{"ha":968,"x_min":0,"x_max":0,"o":"m 707 1282 l 564 1088 l 397 1088 l 457 1282 m 313 207 l 249 0 l -1 0 l 358 993 l 608 993 l 967 0 l 717 0 l 653 207 m 597 397 l 485 764 l 482 764 l 369 397 "},"Ă":{"ha":968,"x_min":0,"x_max":0,"o":"m 483 1079 b 261 1282 357 1079 265 1158 l 389 1282 b 483 1215 393 1242 424 1215 b 578 1282 543 1215 574 1242 l 706 1282 b 483 1079 700 1163 613 1079 m 313 207 l 249 0 l -1 0 l 358 993 l 608 993 l 967 0 l 717 0 l 653 207 m 597 397 l 485 764 l 482 764 l 369 397 "},"Â":{"ha":968,"x_min":0,"x_max":0,"o":"m 375 1282 l 592 1282 l 740 1088 l 547 1088 l 485 1183 l 482 1183 l 419 1088 l 226 1088 m 313 207 l 249 0 l -1 0 l 358 993 l 608 993 l 967 0 l 717 0 l 653 207 m 597 397 l 485 764 l 482 764 l 369 397 "},"Ä":{"ha":968,"x_min":0,"x_max":0,"o":"m 228 1185 b 335 1290 228 1242 267 1290 b 440 1185 403 1290 440 1242 b 335 1079 440 1128 403 1079 b 228 1185 265 1079 228 1128 m 526 1185 b 633 1290 526 1242 565 1290 b 739 1185 701 1290 739 1242 b 633 1079 739 1128 701 1079 b 526 1185 564 1079 526 1128 m 313 207 l 249 0 l -1 0 l 358 993 l 608 993 l 967 0 l 717 0 l 653 207 m 597 397 l 485 764 l 482 764 l 369 397 "},"À":{"ha":968,"x_min":0,"x_max":0,"o":"m 568 1088 l 401 1088 l 258 1282 l 508 1282 m 313 207 l 249 0 l -1 0 l 358 993 l 608 993 l 967 0 l 717 0 l 653 207 m 597 397 l 485 764 l 482 764 l 369 397 "},"Ā":{"ha":968,"x_min":0,"x_max":0,"o":"m 682 1254 l 682 1115 l 285 1115 l 285 1254 m 313 207 l 249 0 l -1 0 l 358 993 l 608 993 l 967 0 l 717 0 l 653 207 m 597 397 l 485 764 l 482 764 l 369 397 "},"Ą":{"ha":968,"x_min":0,"x_max":0,"o":"m 917 -115 b 974 -106 935 -115 954 -111 l 974 -231 b 861 -246 942 -239 900 -246 b 703 -129 757 -246 703 -204 b 800 0 703 -64 756 -21 l 717 0 l 653 207 l 313 207 l 249 0 l -1 0 l 358 993 l 608 993 l 967 0 l 940 0 b 874 -85 904 -31 874 -56 b 917 -115 874 -106 889 -115 m 597 397 l 485 764 l 482 764 l 369 397 "},"Å":{"ha":968,"x_min":0,"x_max":0,"o":"m 483 1072 b 342 1211 407 1072 342 1125 b 483 1350 342 1296 407 1350 b 625 1211 561 1350 625 1296 b 483 1072 625 1125 561 1072 m 483 1149 b 542 1211 518 1149 542 1171 b 483 1274 542 1251 518 1274 b 426 1211 450 1274 426 1251 b 483 1149 426 1171 450 1149 m 313 207 l 249 0 l -1 0 l 358 993 l 608 993 l 967 0 l 717 0 l 653 207 m 597 397 l 485 764 l 482 764 l 369 397 "},"Ã":{"ha":968,"x_min":0,"x_max":0,"o":"m 253 1107 b 375 1294 253 1242 296 1294 b 553 1242 439 1294 500 1242 b 599 1294 590 1242 599 1268 l 714 1294 b 592 1107 714 1158 671 1107 b 414 1158 528 1107 467 1158 b 368 1107 376 1158 368 1132 l 253 1107 m 313 207 l 249 0 l -1 0 l 358 993 l 608 993 l 967 0 l 717 0 l 653 207 m 597 397 l 485 764 l 482 764 l 369 397 "},"Æ":{"ha":1400,"x_min":0,"x_max":0,"o":"m 1360 204 l 1360 0 l 599 0 l 599 204 l 313 204 l 249 -3 l -1 -3 l 374 993 l 1351 993 l 1351 789 l 849 789 l 849 613 l 1282 613 l 1282 408 l 849 408 l 849 204 m 599 394 l 599 789 l 497 789 l 369 394 "},"B":{"ha":932,"x_min":0,"x_max":0,"o":"m 865 743 b 711 532 865 621 793 560 l 711 529 b 904 293 815 511 904 442 b 564 0 904 82 769 0 l 68 0 l 68 993 l 550 993 b 865 743 757 993 865 913 m 490 592 b 615 690 560 592 615 608 b 490 789 615 772 560 789 l 318 789 l 318 592 m 318 204 l 497 204 b 654 322 601 204 654 229 b 497 439 654 415 601 439 l 318 439 "},"C":{"ha":968,"x_min":0,"x_max":0,"o":"m 699 624 b 499 811 681 732 631 811 b 278 497 333 811 278 683 b 499 182 278 310 333 182 b 699 372 632 182 682 261 l 949 372 b 510 -22 926 139 782 -22 b 28 497 196 -22 28 197 b 510 1015 28 796 196 1015 b 949 624 781 1015 925 854 l 699 624 "},"Ć":{"ha":968,"x_min":0,"x_max":0,"o":"m 740 1282 l 597 1088 l 431 1088 l 490 1282 m 699 624 b 499 811 681 732 631 811 b 278 497 333 811 278 683 b 499 182 278 310 333 182 b 699 372 632 182 682 261 l 949 372 b 510 -22 926 139 782 -22 b 28 497 196 -22 28 197 b 510 1015 28 796 196 1015 b 949 624 781 1015 925 854 l 699 624 "},"Č":{"ha":968,"x_min":0,"x_max":0,"o":"m 453 1282 l 515 1186 l 518 1186 l 581 1282 l 774 1282 l 625 1088 l 408 1088 l 260 1282 m 699 624 b 499 811 681 732 631 811 b 278 497 333 811 278 683 b 499 182 278 310 333 182 b 699 372 632 182 682 261 l 949 372 b 510 -22 926 139 782 -22 b 28 497 196 -22 28 197 b 510 1015 28 796 196 1015 b 949 624 781 1015 925 854 l 699 624 "},"Ç":{"ha":968,"x_min":0,"x_max":0,"o":"m 499 182 b 699 372 632 182 682 261 l 949 372 b 554 -21 928 151 797 -4 l 507 -72 l 507 -75 b 663 -168 586 -67 663 -96 b 481 -275 663 -235 579 -275 b 325 -235 415 -275 364 -258 l 367 -186 b 463 -207 393 -199 429 -207 b 524 -167 488 -207 524 -196 b 471 -129 524 -140 500 -129 b 422 -139 453 -129 438 -133 l 399 -106 l 472 -21 b 28 497 182 -4 28 210 b 510 1015 28 796 196 1015 b 949 624 781 1015 925 854 l 699 624 b 499 811 681 732 631 811 b 278 497 333 811 278 683 b 499 182 278 310 333 182 "},"Ċ":{"ha":968,"x_min":0,"x_max":0,"o":"m 410 1185 b 517 1290 410 1242 449 1290 b 622 1185 585 1290 622 1242 b 517 1079 622 1128 585 1079 b 410 1185 447 1079 410 1128 m 699 624 b 499 811 681 732 631 811 b 278 497 333 811 278 683 b 499 182 278 310 333 182 b 699 372 632 182 682 261 l 949 372 b 510 -22 926 139 782 -22 b 28 497 196 -22 28 197 b 510 1015 28 796 196 1015 b 949 624 781 1015 925 854 l 699 624 "},"D":{"ha":979,"x_min":0,"x_max":0,"o":"m 68 993 l 508 993 b 951 496 785 993 951 815 b 522 0 951 176 799 0 l 68 0 m 318 204 l 483 204 b 701 496 639 204 701 315 b 483 789 701 676 639 789 l 318 789 "},"Ð":{"ha":992,"x_min":0,"x_max":0,"o":"m 521 993 b 964 496 797 993 964 815 b 535 0 964 176 811 0 l 81 0 l 81 451 l 4 451 l 4 576 l 81 576 l 81 993 l 521 993 m 496 204 b 714 496 651 204 714 315 b 496 789 714 676 651 789 l 331 789 l 331 576 l 529 576 l 529 451 l 331 451 l 331 204 l 496 204 "},"Ď":{"ha":979,"x_min":0,"x_max":0,"o":"m 376 1282 l 439 1186 l 442 1186 l 504 1282 l 697 1282 l 549 1088 l 332 1088 l 183 1282 m 68 993 l 508 993 b 951 496 785 993 951 815 b 522 0 951 176 799 0 l 68 0 m 318 204 l 483 204 b 701 496 639 204 701 315 b 483 789 701 676 639 789 l 318 789 "},"Đ":{"ha":992,"x_min":0,"x_max":0,"o":"m 521 993 b 964 496 797 993 964 815 b 535 0 964 176 811 0 l 81 0 l 81 451 l 4 451 l 4 576 l 81 576 l 81 993 l 521 993 m 496 204 b 714 496 651 204 714 315 b 496 789 714 676 651 789 l 331 789 l 331 576 l 529 576 l 529 451 l 331 451 l 331 204 l 496 204 "},"E":{"ha":872,"x_min":0,"x_max":0,"o":"m 751 613 l 751 408 l 318 408 l 318 204 l 829 204 l 829 0 l 68 0 l 68 993 l 821 993 l 821 789 l 318 789 l 318 613 "},"É":{"ha":872,"x_min":0,"x_max":0,"o":"m 672 1282 l 529 1088 l 363 1088 l 422 1282 m 751 613 l 751 408 l 318 408 l 318 204 l 829 204 l 829 0 l 68 0 l 68 993 l 821 993 l 821 789 l 318 789 l 318 613 "},"Ě":{"ha":872,"x_min":0,"x_max":0,"o":"m 385 1282 l 447 1186 l 450 1186 l 513 1282 l 706 1282 l 557 1088 l 340 1088 l 192 1282 m 751 613 l 751 408 l 318 408 l 318 204 l 829 204 l 829 0 l 68 0 l 68 993 l 821 993 l 821 789 l 318 789 l 318 613 "},"Ê":{"ha":872,"x_min":0,"x_max":0,"o":"m 340 1282 l 557 1282 l 706 1088 l 513 1088 l 450 1183 l 447 1183 l 385 1088 l 192 1088 m 751 613 l 751 408 l 318 408 l 318 204 l 829 204 l 829 0 l 68 0 l 68 993 l 821 993 l 821 789 l 318 789 l 318 613 "},"Ë":{"ha":872,"x_min":0,"x_max":0,"o":"m 193 1185 b 300 1290 193 1242 232 1290 b 406 1185 368 1290 406 1242 b 300 1079 406 1128 368 1079 b 193 1185 231 1079 193 1128 m 492 1185 b 599 1290 492 1242 531 1290 b 704 1185 667 1290 704 1242 b 599 1079 704 1128 667 1079 b 492 1185 529 1079 492 1128 m 751 613 l 751 408 l 318 408 l 318 204 l 829 204 l 829 0 l 68 0 l 68 993 l 821 993 l 821 789 l 318 789 l 318 613 "},"Ė":{"ha":872,"x_min":0,"x_max":0,"o":"m 342 1185 b 449 1290 342 1242 381 1290 b 554 1185 517 1290 554 1242 b 449 1079 554 1128 517 1079 b 342 1185 379 1079 342 1128 m 751 613 l 751 408 l 318 408 l 318 204 l 829 204 l 829 0 l 68 0 l 68 993 l 821 993 l 821 789 l 318 789 l 318 613 "},"È":{"ha":872,"x_min":0,"x_max":0,"o":"m 533 1088 l 367 1088 l 224 1282 l 474 1282 m 751 613 l 751 408 l 318 408 l 318 204 l 829 204 l 829 0 l 68 0 l 68 993 l 821 993 l 821 789 l 318 789 l 318 613 "},"Ē":{"ha":872,"x_min":0,"x_max":0,"o":"m 647 1254 l 647 1115 l 250 1115 l 250 1254 m 751 613 l 751 408 l 318 408 l 318 204 l 829 204 l 829 0 l 68 0 l 68 993 l 821 993 l 821 789 l 318 789 l 318 613 "},"Ę":{"ha":872,"x_min":0,"x_max":0,"o":"m 800 -115 b 857 -106 818 -115 838 -111 l 857 -231 b 744 -246 825 -239 783 -246 b 586 -129 640 -246 586 -204 b 683 0 586 -64 639 -21 l 68 0 l 68 993 l 821 993 l 821 789 l 318 789 l 318 613 l 751 613 l 751 408 l 318 408 l 318 204 l 829 204 l 829 0 l 824 0 b 757 -85 788 -31 757 -56 b 800 -115 757 -106 772 -115 "},"F":{"ha":836,"x_min":0,"x_max":0,"o":"m 717 571 l 717 367 l 318 367 l 318 0 l 68 0 l 68 993 l 807 993 l 807 789 l 318 789 l 318 571 "},"G":{"ha":1024,"x_min":0,"x_max":0,"o":"m 707 664 b 506 811 689 732 643 811 b 279 497 342 811 279 683 b 515 182 279 310 342 182 b 714 347 631 182 711 251 l 525 347 l 525 528 l 972 528 l 972 0 l 793 0 l 768 126 l 765 126 b 479 -22 718 36 625 -22 b 29 497 197 -22 29 197 b 510 1015 29 796 197 1015 b 957 664 782 1015 933 854 l 707 664 "},"Ğ":{"ha":1024,"x_min":0,"x_max":0,"o":"m 508 1079 b 286 1282 382 1079 290 1158 l 414 1282 b 508 1215 418 1242 449 1215 b 603 1282 568 1215 599 1242 l 731 1282 b 508 1079 725 1163 638 1079 m 707 664 b 506 811 689 732 643 811 b 279 497 342 811 279 683 b 515 182 279 310 342 182 b 714 347 631 182 711 251 l 525 347 l 525 528 l 972 528 l 972 0 l 793 0 l 768 126 l 765 126 b 479 -22 718 36 625 -22 b 29 497 197 -22 29 197 b 510 1015 29 796 197 1015 b 957 664 782 1015 933 854 l 707 664 "},"Ģ":{"ha":1024,"x_min":0,"x_max":0,"o":"m 707 664 b 506 811 689 732 643 811 b 279 497 342 811 279 683 b 515 182 279 310 342 182 b 714 347 631 182 711 251 l 525 347 l 525 528 l 972 528 l 972 0 l 793 0 l 768 126 l 765 126 b 479 -22 718 36 625 -22 b 29 497 197 -22 29 197 b 510 1015 29 796 197 1015 b 957 664 782 1015 933 854 l 707 664 m 513 -235 b 410 -157 451 -249 410 -207 b 506 -65 410 -107 451 -65 b 604 -189 572 -65 604 -121 b 421 -365 604 -281 549 -353 l 421 -301 b 513 -235 475 -294 513 -272 "},"Ġ":{"ha":1024,"x_min":0,"x_max":0,"o":"m 401 1185 b 508 1290 401 1242 440 1290 b 614 1185 576 1290 614 1242 b 508 1079 614 1128 576 1079 b 401 1185 439 1079 401 1128 m 707 664 b 506 811 689 732 643 811 b 279 497 342 811 279 683 b 515 182 279 310 342 182 b 714 347 631 182 711 251 l 525 347 l 525 528 l 972 528 l 972 0 l 793 0 l 768 126 l 765 126 b 479 -22 718 36 625 -22 b 29 497 197 -22 29 197 b 510 1015 29 796 197 1015 b 957 664 782 1015 933 854 l 707 664 "},"H":{"ha":976,"x_min":0,"x_max":0,"o":"m 318 993 l 318 604 l 658 604 l 658 993 l 908 993 l 908 0 l 658 0 l 658 400 l 318 400 l 318 0 l 68 0 l 68 993 "},"Ħ":{"ha":992,"x_min":0,"x_max":0,"o":"m 985 731 l 910 731 l 910 0 l 660 0 l 660 400 l 319 400 l 319 0 l 69 0 l 69 731 l -7 731 l -7 856 l 69 856 l 69 993 l 319 993 l 319 856 l 660 856 l 660 993 l 910 993 l 910 856 l 985 856 m 660 731 l 319 731 l 319 604 l 660 604 "},"I":{"ha":388,"x_min":0,"x_max":0,"o":"m 319 993 l 319 0 l 69 0 l 69 993 "},"Í":{"ha":388,"x_min":0,"x_max":0,"o":"m 418 1282 l 275 1088 l 108 1088 l 168 1282 m 319 993 l 319 0 l 69 0 l 69 993 "},"Î":{"ha":388,"x_min":0,"x_max":0,"o":"m 86 1282 l 303 1282 l 451 1088 l 258 1088 l 196 1183 l 193 1183 l 131 1088 l -62 1088 m 319 993 l 319 0 l 69 0 l 69 993 "},"Ï":{"ha":388,"x_min":0,"x_max":0,"o":"m -61 1185 b 46 1290 -61 1242 -22 1290 b 151 1185 114 1290 151 1242 b 46 1079 151 1128 114 1079 b -61 1185 -24 1079 -61 1128 m 238 1185 b 344 1290 238 1242 276 1290 b 450 1185 413 1290 450 1242 b 344 1079 450 1128 413 1079 b 238 1185 275 1079 238 1128 m 319 993 l 319 0 l 69 0 l 69 993 "},"İ":{"ha":388,"x_min":0,"x_max":0,"o":"m 88 1185 b 194 1290 88 1242 126 1290 b 300 1185 263 1290 300 1242 b 194 1079 300 1128 263 1079 b 88 1185 125 1079 88 1128 m 319 993 l 319 0 l 69 0 l 69 993 "},"Ì":{"ha":388,"x_min":0,"x_max":0,"o":"m 279 1088 l 113 1088 l -31 1282 l 219 1282 m 319 993 l 319 0 l 69 0 l 69 993 "},"Ī":{"ha":388,"x_min":0,"x_max":0,"o":"m 393 1254 l 393 1115 l -4 1115 l -4 1254 m 319 993 l 319 0 l 69 0 l 69 993 "},"Į":{"ha":388,"x_min":0,"x_max":0,"o":"m 294 -115 b 351 -106 313 -115 332 -111 l 351 -231 b 239 -246 319 -239 278 -246 b 81 -129 135 -246 81 -204 b 178 0 81 -64 133 -21 l 69 0 l 69 993 l 319 993 l 319 0 l 318 0 b 251 -85 282 -31 251 -56 b 294 -115 251 -106 267 -115 "},"J":{"ha":757,"x_min":0,"x_max":0,"o":"m 699 331 b 358 -22 699 139 631 -22 b 18 331 86 -22 18 139 l 18 414 l 240 414 l 240 331 b 344 182 240 236 263 182 b 449 331 426 182 449 236 l 449 993 l 699 993 l 699 331 "},"K":{"ha":968,"x_min":0,"x_max":0,"o":"m 318 993 l 318 590 l 664 993 l 956 993 l 578 556 l 969 0 l 678 0 l 418 376 l 318 263 l 318 0 l 68 0 l 68 993 "},"Ķ":{"ha":968,"x_min":0,"x_max":0,"o":"m 318 993 l 318 590 l 664 993 l 956 993 l 578 556 l 969 0 l 678 0 l 418 376 l 318 263 l 318 0 l 68 0 l 68 993 m 497 -235 b 394 -157 436 -249 394 -207 b 490 -65 394 -107 436 -65 b 589 -189 557 -65 589 -121 b 406 -365 589 -281 533 -353 l 406 -301 b 497 -235 460 -294 497 -272 "},"L":{"ha":785,"x_min":0,"x_max":0,"o":"m 318 993 l 318 204 l 760 204 l 760 0 l 68 0 l 68 993 "},"Ĺ":{"ha":785,"x_min":0,"x_max":0,"o":"m 421 1282 l 278 1088 l 111 1088 l 171 1282 m 318 993 l 318 204 l 760 204 l 760 0 l 68 0 l 68 993 "},"Ľ":{"ha":785,"x_min":0,"x_max":0,"o":"m 590 831 b 488 908 529 817 488 858 b 583 1000 488 958 529 1000 b 682 876 650 1000 682 944 b 499 700 682 785 626 713 l 499 764 b 590 831 553 771 590 793 m 318 993 l 318 204 l 760 204 l 760 0 l 68 0 l 68 993 "},"Ļ":{"ha":785,"x_min":0,"x_max":0,"o":"m 318 993 l 318 204 l 760 204 l 760 0 l 68 0 l 68 993 m 419 -235 b 317 -157 358 -249 317 -207 b 413 -65 317 -107 358 -65 b 511 -189 479 -65 511 -121 b 328 -365 511 -281 456 -353 l 328 -301 b 419 -235 382 -294 419 -272 "},"Ł":{"ha":785,"x_min":0,"x_max":0,"o":"m 760 204 l 760 0 l 68 0 l 68 299 l -15 238 l -15 400 l 68 461 l 68 993 l 318 993 l 318 646 l 568 831 l 568 668 l 318 483 l 318 204 "},"M":{"ha":1158,"x_min":0,"x_max":0,"o":"m 68 993 l 374 993 l 578 360 l 581 360 l 785 993 l 1090 993 l 1090 0 l 854 0 l 854 618 l 851 618 l 667 0 l 492 0 l 307 618 l 304 618 l 304 0 l 68 0 "},"N":{"ha":986,"x_min":0,"x_max":0,"o":"m 68 993 l 318 993 l 665 403 l 668 403 l 668 993 l 918 993 l 918 0 l 668 0 l 321 590 l 318 590 l 318 0 l 68 0 "},"Ń":{"ha":986,"x_min":0,"x_max":0,"o":"m 717 1282 l 574 1088 l 407 1088 l 467 1282 m 68 993 l 318 993 l 665 403 l 668 403 l 668 993 l 918 993 l 918 0 l 668 0 l 321 590 l 318 590 l 318 0 l 68 0 "},"Ň":{"ha":986,"x_min":0,"x_max":0,"o":"m 429 1282 l 492 1186 l 494 1186 l 557 1282 l 750 1282 l 601 1088 l 385 1088 l 236 1282 m 68 993 l 318 993 l 665 403 l 668 403 l 668 993 l 918 993 l 918 0 l 668 0 l 321 590 l 318 590 l 318 0 l 68 0 "},"Ņ":{"ha":986,"x_min":0,"x_max":0,"o":"m 68 993 l 318 993 l 665 403 l 668 403 l 668 993 l 918 993 l 918 0 l 668 0 l 321 590 l 318 590 l 318 0 l 68 0 m 499 -235 b 396 -157 438 -249 396 -207 b 492 -65 396 -107 438 -65 b 590 -189 558 -65 590 -121 b 407 -365 590 -281 535 -353 l 407 -301 b 499 -235 461 -294 499 -272 "},"Ŋ":{"ha":986,"x_min":0,"x_max":0,"o":"m 68 993 l 318 993 l 665 403 l 668 403 l 668 993 l 918 993 l 918 64 b 642 -246 918 -122 842 -246 b 506 -232 594 -246 550 -242 l 506 -69 b 668 0 617 -69 644 -50 l 321 590 l 318 590 l 318 0 l 68 0 "},"Ñ":{"ha":986,"x_min":0,"x_max":0,"o":"m 263 1107 b 385 1294 263 1242 306 1294 b 563 1242 449 1294 510 1242 b 608 1294 600 1242 608 1268 l 724 1294 b 601 1107 724 1158 681 1107 b 424 1158 538 1107 476 1158 b 378 1107 386 1158 378 1132 l 263 1107 m 68 993 l 318 993 l 665 403 l 668 403 l 668 993 l 918 993 l 918 0 l 668 0 l 321 590 l 318 590 l 318 0 l 68 0 "},"O":{"ha":1039,"x_min":0,"x_max":0,"o":"m 519 -22 b 28 497 204 -22 28 197 b 519 1015 28 796 204 1015 b 1011 497 832 1015 1011 796 b 519 -22 1011 197 832 -22 m 519 182 b 761 497 700 182 761 324 b 519 811 761 669 700 811 b 278 497 338 811 278 669 b 519 182 278 324 338 182 "},"Ó":{"ha":1039,"x_min":0,"x_max":0,"o":"m 743 1282 l 600 1088 l 433 1088 l 493 1282 m 519 -22 b 28 497 204 -22 28 197 b 519 1015 28 796 204 1015 b 1011 497 832 1015 1011 796 b 519 -22 1011 197 832 -22 m 519 182 b 761 497 700 182 761 324 b 519 811 761 669 700 811 b 278 497 338 811 278 669 b 519 182 278 324 338 182 "},"Ô":{"ha":1039,"x_min":0,"x_max":0,"o":"m 411 1282 l 628 1282 l 776 1088 l 583 1088 l 521 1183 l 518 1183 l 456 1088 l 263 1088 m 519 -22 b 28 497 204 -22 28 197 b 519 1015 28 796 204 1015 b 1011 497 832 1015 1011 796 b 519 -22 1011 197 832 -22 m 519 182 b 761 497 700 182 761 324 b 519 811 761 669 700 811 b 278 497 338 811 278 669 b 519 182 278 324 338 182 "},"Ö":{"ha":1039,"x_min":0,"x_max":0,"o":"m 264 1185 b 371 1290 264 1242 303 1290 b 476 1185 439 1290 476 1242 b 371 1079 476 1128 439 1079 b 264 1185 301 1079 264 1128 m 563 1185 b 669 1290 563 1242 601 1290 b 775 1185 738 1290 775 1242 b 669 1079 775 1128 738 1079 b 563 1185 600 1079 563 1128 m 519 -22 b 28 497 204 -22 28 197 b 519 1015 28 796 204 1015 b 1011 497 832 1015 1011 796 b 519 -22 1011 197 832 -22 m 519 182 b 761 497 700 182 761 324 b 519 811 761 669 700 811 b 278 497 338 811 278 669 b 519 182 278 324 338 182 "},"Ò":{"ha":1039,"x_min":0,"x_max":0,"o":"m 604 1088 l 438 1088 l 294 1282 l 544 1282 m 519 -22 b 28 497 204 -22 28 197 b 519 1015 28 796 204 1015 b 1011 497 832 1015 1011 796 b 519 -22 1011 197 832 -22 m 519 182 b 761 497 700 182 761 324 b 519 811 761 669 700 811 b 278 497 338 811 278 669 b 519 182 278 324 338 182 "},"Ő":{"ha":1039,"x_min":0,"x_max":0,"o":"m 586 1282 l 443 1088 l 276 1088 l 336 1282 m 892 1282 l 749 1088 l 582 1088 l 642 1282 m 519 -22 b 28 497 204 -22 28 197 b 519 1015 28 796 204 1015 b 1011 497 832 1015 1011 796 b 519 -22 1011 197 832 -22 m 519 182 b 761 497 700 182 761 324 b 519 811 761 669 700 811 b 278 497 338 811 278 669 b 519 182 278 324 338 182 "},"Ō":{"ha":1039,"x_min":0,"x_max":0,"o":"m 718 1254 l 718 1115 l 321 1115 l 321 1254 m 519 -22 b 28 497 204 -22 28 197 b 519 1015 28 796 204 1015 b 1011 497 832 1015 1011 796 b 519 -22 1011 197 832 -22 m 519 182 b 761 497 700 182 761 324 b 519 811 761 669 700 811 b 278 497 338 811 278 669 b 519 182 278 324 338 182 "},"Ø":{"ha":1044,"x_min":0,"x_max":0,"o":"m 914 832 b 1014 497 979 743 1014 628 b 522 -22 1014 197 835 -22 b 183 99 381 -22 265 22 l 86 1 l 28 61 l 128 163 b 31 497 64 250 31 367 b 522 1015 31 796 207 1015 b 858 894 663 1015 776 971 l 957 993 l 1017 935 m 281 497 b 303 338 281 439 288 385 l 699 735 b 522 811 661 782 604 811 b 281 497 340 811 281 669 m 764 497 b 740 658 764 556 757 611 l 343 260 b 522 182 382 211 439 182 b 764 497 703 182 764 324 "},"Õ":{"ha":1039,"x_min":0,"x_max":0,"o":"m 289 1107 b 411 1294 289 1242 332 1294 b 589 1242 475 1294 536 1242 b 635 1294 626 1242 635 1268 l 750 1294 b 628 1107 750 1158 707 1107 b 450 1158 564 1107 503 1158 b 404 1107 413 1158 404 1132 l 289 1107 m 519 -22 b 28 497 204 -22 28 197 b 519 1015 28 796 204 1015 b 1011 497 832 1015 1011 796 b 519 -22 1011 197 832 -22 m 519 182 b 761 497 700 182 761 324 b 519 811 761 669 700 811 b 278 497 338 811 278 669 b 519 182 278 324 338 182 "},"Œ":{"ha":1524,"x_min":0,"x_max":0,"o":"m 1481 204 l 1481 0 l 719 0 l 719 65 b 478 -22 660 13 582 -22 b 28 497 204 -22 28 197 b 478 1015 28 796 204 1015 b 719 928 582 1015 660 981 l 719 993 l 1472 993 l 1472 789 l 969 789 l 969 613 l 1403 613 l 1403 408 l 969 408 l 969 204 m 519 182 b 719 310 611 182 679 232 l 719 683 b 519 811 679 761 611 811 b 278 497 338 811 278 669 b 519 182 278 324 338 182 "},"P":{"ha":906,"x_min":0,"x_max":0,"o":"m 68 993 l 550 993 b 886 676 757 993 886 885 b 550 360 886 468 757 360 l 318 360 l 318 0 l 68 0 m 318 564 l 497 564 b 636 676 583 564 636 593 b 497 789 636 760 583 789 l 318 789 "},"Þ":{"ha":903,"x_min":0,"x_max":0,"o":"m 68 993 l 318 993 l 318 854 l 550 854 b 886 538 757 854 886 746 b 550 221 886 329 757 221 l 318 221 l 318 0 l 68 0 m 318 425 l 497 425 b 636 538 583 425 636 454 b 497 650 636 621 583 650 l 318 650 "},"Q":{"ha":1039,"x_min":0,"x_max":0,"o":"m 1011 497 b 908 156 1011 364 975 246 l 1010 54 l 875 -81 l 763 32 b 519 -22 694 -3 613 -22 b 28 497 204 -22 28 197 b 519 1015 28 796 204 1015 b 1011 497 832 1015 1011 796 m 519 182 b 601 194 550 182 578 186 l 479 317 l 614 451 l 736 329 b 761 497 753 378 761 436 b 519 811 761 669 700 811 b 278 497 338 811 278 669 b 519 182 278 324 338 182 "},"R":{"ha":932,"x_min":0,"x_max":0,"o":"m 68 993 l 536 993 b 890 704 757 993 890 892 b 689 461 890 572 813 489 l 689 458 b 904 14 938 415 847 31 l 904 0 l 644 0 b 474 346 596 42 686 346 l 318 346 l 318 0 l 68 0 m 318 550 l 488 550 b 640 669 588 550 640 586 b 488 789 640 753 588 789 l 318 789 "},"Ŕ":{"ha":932,"x_min":0,"x_max":0,"o":"m 668 1282 l 525 1088 l 358 1088 l 418 1282 m 68 993 l 536 993 b 890 704 757 993 890 892 b 689 461 890 572 813 489 l 689 458 b 904 14 938 415 847 31 l 904 0 l 644 0 b 474 346 596 42 686 346 l 318 346 l 318 0 l 68 0 m 318 550 l 488 550 b 640 669 588 550 640 586 b 488 789 640 753 588 789 l 318 789 "},"Ř":{"ha":932,"x_min":0,"x_max":0,"o":"m 381 1282 l 443 1186 l 446 1186 l 508 1282 l 701 1282 l 553 1088 l 336 1088 l 188 1282 m 68 993 l 536 993 b 890 704 757 993 890 892 b 689 461 890 572 813 489 l 689 458 b 904 14 938 415 847 31 l 904 0 l 644 0 b 474 346 596 42 686 346 l 318 346 l 318 0 l 68 0 m 318 550 l 488 550 b 640 669 588 550 640 586 b 488 789 640 753 588 789 l 318 789 "},"Ŗ":{"ha":932,"x_min":0,"x_max":0,"o":"m 68 993 l 536 993 b 890 704 757 993 890 892 b 689 461 890 572 813 489 l 689 458 b 904 14 938 415 847 31 l 904 0 l 644 0 b 474 346 596 42 686 346 l 318 346 l 318 0 l 68 0 m 318 550 l 488 550 b 640 669 588 550 640 586 b 488 789 640 753 588 789 l 318 789 m 492 -235 b 389 -157 431 -249 389 -207 b 485 -65 389 -107 431 -65 b 583 -189 551 -65 583 -121 b 400 -365 583 -281 528 -353 l 400 -301 b 492 -235 454 -294 492 -272 "},"S":{"ha":899,"x_min":0,"x_max":0,"o":"m 486 617 b 867 292 674 565 867 504 b 474 -22 867 101 722 -22 b 21 326 215 -22 21 106 l 271 326 b 474 182 271 221 363 182 b 617 268 567 182 617 218 b 369 407 617 347 510 365 b 49 714 199 457 49 531 b 432 1015 49 931 218 1015 b 853 692 664 1015 846 893 l 603 692 b 432 811 592 767 528 811 b 299 732 357 811 299 788 b 486 617 299 671 361 651 "},"Ś":{"ha":899,"x_min":0,"x_max":0,"o":"m 668 1282 l 525 1088 l 358 1088 l 418 1282 m 486 617 b 867 292 674 565 867 504 b 474 -22 867 101 722 -22 b 21 326 215 -22 21 106 l 271 326 b 474 182 271 221 363 182 b 617 268 567 182 617 218 b 369 407 617 347 510 365 b 49 714 199 457 49 531 b 432 1015 49 931 218 1015 b 853 692 664 1015 846 893 l 603 692 b 432 811 592 767 528 811 b 299 732 357 811 299 788 b 486 617 299 671 361 651 "},"Š":{"ha":899,"x_min":0,"x_max":0,"o":"m 381 1282 l 443 1186 l 446 1186 l 508 1282 l 701 1282 l 553 1088 l 336 1088 l 188 1282 m 486 617 b 867 292 674 565 867 504 b 474 -22 867 101 722 -22 b 21 326 215 -22 21 106 l 271 326 b 474 182 271 221 363 182 b 617 268 567 182 617 218 b 369 407 617 347 510 365 b 49 714 199 457 49 531 b 432 1015 49 931 218 1015 b 853 692 664 1015 846 893 l 603 692 b 432 811 592 767 528 811 b 299 732 357 811 299 788 b 486 617 299 671 361 651 "},"Ş":{"ha":899,"x_min":0,"x_max":0,"o":"m 463 -72 l 463 -75 b 618 -168 542 -67 618 -96 b 436 -275 618 -235 535 -275 b 281 -235 371 -275 319 -258 l 322 -186 b 418 -207 349 -199 385 -207 b 479 -167 443 -207 479 -196 b 426 -129 479 -140 456 -129 b 378 -139 408 -129 393 -133 l 354 -106 l 428 -21 b 21 326 193 -7 21 119 l 271 326 b 474 182 271 221 363 182 b 617 268 567 182 617 218 b 369 407 617 347 510 365 b 49 714 199 457 49 531 b 432 1015 49 931 218 1015 b 853 692 664 1015 846 893 l 603 692 b 432 811 592 767 528 811 b 299 732 357 811 299 788 b 486 617 299 671 361 651 b 867 292 674 565 867 504 b 508 -21 867 111 736 -10 "},"Ș":{"ha":899,"x_min":0,"x_max":0,"o":"m 486 617 b 867 292 674 565 867 504 b 474 -22 867 101 722 -22 b 21 326 215 -22 21 106 l 271 326 b 474 182 271 221 363 182 b 617 268 567 182 617 218 b 369 407 617 347 510 365 b 49 714 199 457 49 531 b 432 1015 49 931 218 1015 b 853 692 664 1015 846 893 l 603 692 b 432 811 592 767 528 811 b 299 732 357 811 299 788 b 486 617 299 671 361 651 m 478 -235 b 375 -157 417 -249 375 -207 b 471 -65 375 -107 417 -65 b 569 -189 538 -65 569 -121 b 386 -365 569 -281 514 -353 l 386 -301 b 478 -235 440 -294 478 -272 "},"T":{"ha":874,"x_min":0,"x_max":0,"o":"m 313 789 l 24 789 l 24 993 l 850 993 l 850 789 l 563 789 l 563 0 l 313 0 "},"Ŧ":{"ha":874,"x_min":0,"x_max":0,"o":"m 563 789 l 563 576 l 749 576 l 749 451 l 563 451 l 563 0 l 313 0 l 313 451 l 126 451 l 126 576 l 313 576 l 313 789 l 24 789 l 24 993 l 850 993 l 850 789 "},"Ť":{"ha":874,"x_min":0,"x_max":0,"o":"m 374 1282 l 436 1186 l 439 1186 l 501 1282 l 694 1282 l 546 1088 l 329 1088 l 181 1282 m 313 789 l 24 789 l 24 993 l 850 993 l 850 789 l 563 789 l 563 0 l 313 0 "},"Ţ":{"ha":874,"x_min":0,"x_max":0,"o":"m 428 -58 l 428 -61 b 583 -154 507 -53 583 -82 b 401 -261 583 -221 500 -261 b 246 -221 336 -261 285 -244 l 288 -172 b 383 -193 314 -185 350 -193 b 444 -153 408 -193 444 -182 b 392 -115 444 -126 421 -115 b 343 -125 374 -115 358 -119 l 319 -92 l 399 0 l 313 0 l 313 789 l 24 789 l 24 993 l 850 993 l 850 789 l 563 789 l 563 0 l 481 0 "},"Ț":{"ha":874,"x_min":0,"x_max":0,"o":"m 313 789 l 24 789 l 24 993 l 850 993 l 850 789 l 563 789 l 563 0 l 313 0 m 443 -221 b 340 -143 382 -235 340 -193 b 436 -51 340 -93 382 -51 b 535 -175 503 -51 535 -107 b 351 -351 535 -267 479 -339 l 351 -287 b 443 -221 406 -281 443 -258 "},"U":{"ha":953,"x_min":0,"x_max":0,"o":"m 892 358 b 476 -22 892 111 776 -22 b 61 358 176 -22 61 111 l 61 993 l 311 993 l 311 358 b 476 182 311 229 367 182 b 642 358 586 182 642 229 l 642 993 l 892 993 l 892 358 "},"Ú":{"ha":953,"x_min":0,"x_max":0,"o":"m 700 1282 l 557 1088 l 390 1088 l 450 1282 m 892 358 b 476 -22 892 111 776 -22 b 61 358 176 -22 61 111 l 61 993 l 311 993 l 311 358 b 476 182 311 229 367 182 b 642 358 586 182 642 229 l 642 993 l 892 993 l 892 358 "},"Û":{"ha":953,"x_min":0,"x_max":0,"o":"m 368 1282 l 585 1282 l 733 1088 l 540 1088 l 478 1183 l 475 1183 l 413 1088 l 219 1088 m 892 358 b 476 -22 892 111 776 -22 b 61 358 176 -22 61 111 l 61 993 l 311 993 l 311 358 b 476 182 311 229 367 182 b 642 358 586 182 642 229 l 642 993 l 892 993 l 892 358 "},"Ü":{"ha":953,"x_min":0,"x_max":0,"o":"m 221 1185 b 328 1290 221 1242 260 1290 b 433 1185 396 1290 433 1242 b 328 1079 433 1128 396 1079 b 221 1185 258 1079 221 1128 m 519 1185 b 626 1290 519 1242 558 1290 b 732 1185 694 1290 732 1242 b 626 1079 732 1128 694 1079 b 519 1185 557 1079 519 1128 m 892 358 b 476 -22 892 111 776 -22 b 61 358 176 -22 61 111 l 61 993 l 311 993 l 311 358 b 476 182 311 229 367 182 b 642 358 586 182 642 229 l 642 993 l 892 993 l 892 358 "},"Ù":{"ha":953,"x_min":0,"x_max":0,"o":"m 561 1088 l 394 1088 l 251 1282 l 501 1282 m 892 358 b 476 -22 892 111 776 -22 b 61 358 176 -22 61 111 l 61 993 l 311 993 l 311 358 b 476 182 311 229 367 182 b 642 358 586 182 642 229 l 642 993 l 892 993 l 892 358 "},"Ű":{"ha":953,"x_min":0,"x_max":0,"o":"m 543 1282 l 400 1088 l 233 1088 l 293 1282 m 849 1282 l 706 1088 l 539 1088 l 599 1282 m 892 358 b 476 -22 892 111 776 -22 b 61 358 176 -22 61 111 l 61 993 l 311 993 l 311 358 b 476 182 311 229 367 182 b 642 358 586 182 642 229 l 642 993 l 892 993 l 892 358 "},"Ū":{"ha":953,"x_min":0,"x_max":0,"o":"m 675 1254 l 675 1115 l 278 1115 l 278 1254 m 892 358 b 476 -22 892 111 776 -22 b 61 358 176 -22 61 111 l 61 993 l 311 993 l 311 358 b 476 182 311 229 367 182 b 642 358 586 182 642 229 l 642 993 l 892 993 l 892 358 "},"Ų":{"ha":953,"x_min":0,"x_max":0,"o":"m 892 993 l 892 358 b 660 0 892 169 825 47 b 593 -85 624 -31 593 -56 b 636 -115 593 -106 608 -115 b 693 -106 654 -115 674 -111 l 693 -231 b 581 -246 661 -239 619 -246 b 422 -129 476 -246 422 -204 b 482 -22 422 -82 450 -46 l 476 -22 b 61 358 176 -22 61 111 l 61 993 l 311 993 l 311 358 b 476 182 311 229 367 182 b 642 358 586 182 642 229 l 642 993 "},"Ů":{"ha":953,"x_min":0,"x_max":0,"o":"m 476 1072 b 335 1211 400 1072 335 1125 b 476 1350 335 1296 400 1350 b 618 1211 554 1350 618 1296 b 476 1072 618 1125 554 1072 m 476 1149 b 535 1211 511 1149 535 1171 b 476 1274 535 1251 511 1274 b 419 1211 443 1274 419 1251 b 476 1149 419 1171 443 1149 m 892 358 b 476 -22 892 111 776 -22 b 61 358 176 -22 61 111 l 61 993 l 311 993 l 311 358 b 476 182 311 229 367 182 b 642 358 586 182 642 229 l 642 993 l 892 993 l 892 358 "},"V":{"ha":904,"x_min":0,"x_max":0,"o":"m 263 993 l 450 297 l 453 297 l 642 993 l 906 993 l 583 0 l 319 0 l -3 993 "},"W":{"ha":1306,"x_min":0,"x_max":0,"o":"m 250 993 l 378 319 l 381 319 l 535 993 l 771 993 l 925 319 l 928 319 l 1056 993 l 1306 993 l 1053 0 l 803 0 l 654 619 l 651 619 l 503 0 l 253 0 l 0 993 "},"Ẃ":{"ha":1306,"x_min":0,"x_max":0,"o":"m 876 1282 l 733 1088 l 567 1088 l 626 1282 m 250 993 l 378 319 l 381 319 l 535 993 l 771 993 l 925 319 l 928 319 l 1056 993 l 1306 993 l 1053 0 l 803 0 l 654 619 l 651 619 l 503 0 l 253 0 l 0 993 "},"Ŵ":{"ha":1306,"x_min":0,"x_max":0,"o":"m 544 1282 l 761 1282 l 910 1088 l 717 1088 l 654 1183 l 651 1183 l 589 1088 l 396 1088 m 250 993 l 378 319 l 381 319 l 535 993 l 771 993 l 925 319 l 928 319 l 1056 993 l 1306 993 l 1053 0 l 803 0 l 654 619 l 651 619 l 503 0 l 253 0 l 0 993 "},"Ẅ":{"ha":1306,"x_min":0,"x_max":0,"o":"m 397 1185 b 504 1290 397 1242 436 1290 b 610 1185 572 1290 610 1242 b 504 1079 610 1128 572 1079 b 397 1185 435 1079 397 1128 m 696 1185 b 803 1290 696 1242 735 1290 b 908 1185 871 1290 908 1242 b 803 1079 908 1128 871 1079 b 696 1185 733 1079 696 1128 m 250 993 l 378 319 l 381 319 l 535 993 l 771 993 l 925 319 l 928 319 l 1056 993 l 1306 993 l 1053 0 l 803 0 l 654 619 l 651 619 l 503 0 l 253 0 l 0 993 "},"Ẁ":{"ha":1306,"x_min":0,"x_max":0,"o":"m 738 1088 l 571 1088 l 428 1282 l 678 1282 m 250 993 l 378 319 l 381 319 l 535 993 l 771 993 l 925 319 l 928 319 l 1056 993 l 1306 993 l 1053 0 l 803 0 l 654 619 l 651 619 l 503 0 l 253 0 l 0 993 "},"X":{"ha":960,"x_min":0,"x_max":0,"o":"m 32 993 l 296 993 l 478 690 l 481 690 l 664 993 l 928 993 l 626 510 l 956 0 l 678 0 l 481 322 l 478 322 l 282 0 l 4 0 l 333 507 "},"Y":{"ha":921,"x_min":0,"x_max":0,"o":"m 265 993 l 458 585 l 461 585 l 656 993 l 919 993 l 585 367 l 585 0 l 335 0 l 335 367 l 1 993 "},"Ý":{"ha":921,"x_min":0,"x_max":0,"o":"m 685 1282 l 542 1088 l 375 1088 l 435 1282 m 265 993 l 458 585 l 461 585 l 656 993 l 919 993 l 585 367 l 585 0 l 335 0 l 335 367 l 1 993 "},"Ŷ":{"ha":921,"x_min":0,"x_max":0,"o":"m 353 1282 l 569 1282 l 718 1088 l 525 1088 l 463 1183 l 460 1183 l 397 1088 l 204 1088 m 265 993 l 458 585 l 461 585 l 656 993 l 919 993 l 585 367 l 585 0 l 335 0 l 335 367 l 1 993 "},"Ÿ":{"ha":921,"x_min":0,"x_max":0,"o":"m 206 1185 b 313 1290 206 1242 244 1290 b 418 1185 381 1290 418 1242 b 313 1079 418 1128 381 1079 b 206 1185 243 1079 206 1128 m 504 1185 b 611 1290 504 1242 543 1290 b 717 1185 679 1290 717 1242 b 611 1079 717 1128 679 1079 b 504 1185 542 1079 504 1128 m 265 993 l 458 585 l 461 585 l 656 993 l 919 993 l 585 367 l 585 0 l 335 0 l 335 367 l 1 993 "},"Ỳ":{"ha":921,"x_min":0,"x_max":0,"o":"m 546 1088 l 379 1088 l 236 1282 l 486 1282 m 265 993 l 458 585 l 461 585 l 656 993 l 919 993 l 585 367 l 585 0 l 335 0 l 335 367 l 1 993 "},"Z":{"ha":847,"x_min":0,"x_max":0,"o":"m 796 993 l 796 789 l 342 207 l 342 204 l 810 204 l 810 0 l 36 0 l 36 204 l 490 786 l 490 789 l 64 789 l 64 993 "},"Ź":{"ha":847,"x_min":0,"x_max":0,"o":"m 661 1282 l 518 1088 l 351 1088 l 411 1282 m 796 993 l 796 789 l 342 207 l 342 204 l 810 204 l 810 0 l 36 0 l 36 204 l 490 786 l 490 789 l 64 789 l 64 993 "},"Ž":{"ha":847,"x_min":0,"x_max":0,"o":"m 374 1282 l 436 1186 l 439 1186 l 501 1282 l 694 1282 l 546 1088 l 329 1088 l 181 1282 m 796 993 l 796 789 l 342 207 l 342 204 l 810 204 l 810 0 l 36 0 l 36 204 l 490 786 l 490 789 l 64 789 l 64 993 "},"Ż":{"ha":847,"x_min":0,"x_max":0,"o":"m 331 1185 b 438 1290 331 1242 369 1290 b 543 1185 506 1290 543 1242 b 438 1079 543 1128 506 1079 b 331 1185 368 1079 331 1128 m 796 993 l 796 789 l 342 207 l 342 204 l 810 204 l 810 0 l 36 0 l 36 204 l 490 786 l 490 789 l 64 789 l 64 993 "},"a":{"ha":768,"x_min":0,"x_max":0,"o":"m 474 514 b 383 581 474 556 444 581 b 257 482 303 581 264 550 l 49 482 b 385 733 56 618 153 733 b 696 432 585 733 696 656 l 696 106 b 738 53 696 68 710 53 l 738 0 b 608 -22 693 -17 653 -22 b 481 75 508 -22 481 25 l 478 75 b 254 -22 432 22 349 -22 b 21 182 104 -22 21 63 b 292 422 21 324 125 389 b 474 514 383 440 474 454 m 332 131 b 474 260 428 131 474 192 l 474 346 b 360 314 446 335 411 325 b 243 214 272 294 243 258 b 332 131 243 156 278 131 "},"á":{"ha":768,"x_min":0,"x_max":0,"o":"m 608 1000 l 465 806 l 299 806 l 358 1000 m 474 514 b 383 581 474 556 444 581 b 257 482 303 581 264 550 l 49 482 b 385 733 56 618 153 733 b 696 432 585 733 696 656 l 696 106 b 738 53 696 68 710 53 l 738 0 b 608 -22 693 -17 653 -22 b 481 75 508 -22 481 25 l 478 75 b 254 -22 432 22 349 -22 b 21 182 104 -22 21 63 b 292 422 21 324 125 389 b 474 514 383 440 474 454 m 332 131 b 474 260 428 131 474 192 l 474 346 b 360 314 446 335 411 325 b 243 214 272 294 243 258 b 332 131 243 156 278 131 "},"ă":{"ha":768,"x_min":0,"x_max":0,"o":"m 385 797 b 163 1000 258 797 167 876 l 290 1000 b 385 933 294 960 325 933 b 479 1000 444 933 475 960 l 607 1000 b 385 797 601 881 514 797 m 474 514 b 383 581 474 556 444 581 b 257 482 303 581 264 550 l 49 482 b 385 733 56 618 153 733 b 696 432 585 733 696 656 l 696 106 b 738 53 696 68 710 53 l 738 0 b 608 -22 693 -17 653 -22 b 481 75 508 -22 481 25 l 478 75 b 254 -22 432 22 349 -22 b 21 182 104 -22 21 63 b 292 422 21 324 125 389 b 474 514 383 440 474 454 m 332 131 b 474 260 428 131 474 192 l 474 346 b 360 314 446 335 411 325 b 243 214 272 294 243 258 b 332 131 243 156 278 131 "},"â":{"ha":768,"x_min":0,"x_max":0,"o":"m 276 1000 l 493 1000 l 642 806 l 449 806 l 386 901 l 383 901 l 321 806 l 128 806 m 474 514 b 383 581 474 556 444 581 b 257 482 303 581 264 550 l 49 482 b 385 733 56 618 153 733 b 696 432 585 733 696 656 l 696 106 b 738 53 696 68 710 53 l 738 0 b 608 -22 693 -17 653 -22 b 481 75 508 -22 481 25 l 478 75 b 254 -22 432 22 349 -22 b 21 182 104 -22 21 63 b 292 422 21 324 125 389 b 474 514 383 440 474 454 m 332 131 b 474 260 428 131 474 192 l 474 346 b 360 314 446 335 411 325 b 243 214 272 294 243 258 b 332 131 243 156 278 131 "},"ä":{"ha":768,"x_min":0,"x_max":0,"o":"m 129 903 b 236 1008 129 960 168 1008 b 342 903 304 1008 342 960 b 236 797 342 846 304 797 b 129 903 167 797 129 846 m 428 903 b 535 1008 428 960 467 1008 b 640 903 603 1008 640 960 b 535 797 640 846 603 797 b 428 903 465 797 428 846 m 474 514 b 383 581 474 556 444 581 b 257 482 303 581 264 550 l 49 482 b 385 733 56 618 153 733 b 696 432 585 733 696 656 l 696 106 b 738 53 696 68 710 53 l 738 0 b 608 -22 693 -17 653 -22 b 481 75 508 -22 481 25 l 478 75 b 254 -22 432 22 349 -22 b 21 182 104 -22 21 63 b 292 422 21 324 125 389 b 474 514 383 440 474 454 m 332 131 b 474 260 428 131 474 192 l 474 346 b 360 314 446 335 411 325 b 243 214 272 294 243 258 b 332 131 243 156 278 131 "},"à":{"ha":768,"x_min":0,"x_max":0,"o":"m 469 806 l 303 806 l 160 1000 l 410 1000 m 474 514 b 383 581 474 556 444 581 b 257 482 303 581 264 550 l 49 482 b 385 733 56 618 153 733 b 696 432 585 733 696 656 l 696 106 b 738 53 696 68 710 53 l 738 0 b 608 -22 693 -17 653 -22 b 481 75 508 -22 481 25 l 478 75 b 254 -22 432 22 349 -22 b 21 182 104 -22 21 63 b 292 422 21 324 125 389 b 474 514 383 440 474 454 m 332 131 b 474 260 428 131 474 192 l 474 346 b 360 314 446 335 411 325 b 243 214 272 294 243 258 b 332 131 243 156 278 131 "},"ā":{"ha":768,"x_min":0,"x_max":0,"o":"m 583 972 l 583 833 l 186 833 l 186 972 m 474 514 b 383 581 474 556 444 581 b 257 482 303 581 264 550 l 49 482 b 385 733 56 618 153 733 b 696 432 585 733 696 656 l 696 106 b 738 53 696 68 710 53 l 738 0 b 608 -22 693 -17 653 -22 b 481 75 508 -22 481 25 l 478 75 b 254 -22 432 22 349 -22 b 21 182 104 -22 21 63 b 292 422 21 324 125 389 b 474 514 383 440 474 454 m 332 131 b 474 260 428 131 474 192 l 474 346 b 360 314 446 335 411 325 b 243 214 272 294 243 258 b 332 131 243 156 278 131 "},"ą":{"ha":768,"x_min":0,"x_max":0,"o":"m 714 -115 b 771 -106 732 -115 751 -111 l 771 -231 b 658 -246 739 -239 697 -246 b 500 -129 554 -246 500 -204 b 565 -18 500 -79 531 -43 b 481 75 500 -7 481 33 l 478 75 b 254 -22 432 22 349 -22 b 21 182 104 -22 21 63 b 292 422 21 324 125 389 b 474 514 383 440 474 454 b 383 581 474 556 444 581 b 257 482 303 581 264 550 l 49 482 b 385 733 56 618 153 733 b 696 432 585 733 696 656 l 696 106 b 738 53 696 68 710 53 l 738 0 b 671 -85 701 -31 671 -56 b 714 -115 671 -106 686 -115 m 474 346 b 360 314 446 335 411 325 b 243 214 272 294 243 258 b 332 131 243 156 278 131 b 474 260 428 131 474 192 "},"å":{"ha":768,"x_min":0,"x_max":0,"o":"m 385 790 b 243 929 308 790 243 843 b 385 1068 243 1014 308 1068 b 526 929 463 1068 526 1014 b 385 790 526 843 463 790 m 385 867 b 443 929 419 867 443 889 b 385 992 443 969 419 992 b 328 929 351 992 328 969 b 385 867 328 889 351 867 m 474 514 b 383 581 474 556 444 581 b 257 482 303 581 264 550 l 49 482 b 385 733 56 618 153 733 b 696 432 585 733 696 656 l 696 106 b 738 53 696 68 710 53 l 738 0 b 608 -22 693 -17 653 -22 b 481 75 508 -22 481 25 l 478 75 b 254 -22 432 22 349 -22 b 21 182 104 -22 21 63 b 292 422 21 324 125 389 b 474 514 383 440 474 454 m 332 131 b 474 260 428 131 474 192 l 474 346 b 360 314 446 335 411 325 b 243 214 272 294 243 258 b 332 131 243 156 278 131 "},"ã":{"ha":768,"x_min":0,"x_max":0,"o":"m 154 825 b 276 1013 154 960 197 1013 b 454 960 340 1013 401 960 b 500 1013 492 960 500 986 l 615 1013 b 493 825 615 876 572 825 b 315 876 429 825 368 876 b 269 825 278 876 269 850 l 154 825 m 474 514 b 383 581 474 556 444 581 b 257 482 303 581 264 550 l 49 482 b 385 733 56 618 153 733 b 696 432 585 733 696 656 l 696 106 b 738 53 696 68 710 53 l 738 0 b 608 -22 693 -17 653 -22 b 481 75 508 -22 481 25 l 478 75 b 254 -22 432 22 349 -22 b 21 182 104 -22 21 63 b 292 422 21 324 125 389 b 474 514 383 440 474 454 m 332 131 b 474 260 428 131 474 192 l 474 346 b 360 314 446 335 411 325 b 243 214 272 294 243 258 b 332 131 243 156 278 131 "},"æ":{"ha":1231,"x_min":0,"x_max":0,"o":"m 849 144 b 975 215 925 144 961 181 l 1196 215 b 853 -22 1157 72 1046 -22 b 582 75 739 -22 647 14 b 282 -22 472 -22 340 -22 b 21 182 104 -22 21 63 b 292 422 21 324 125 389 b 474 514 383 440 474 454 b 383 581 474 556 444 581 b 257 482 303 581 264 550 l 49 482 b 385 733 56 618 153 733 b 617 665 486 733 564 714 b 840 733 676 708 751 733 b 1207 297 1083 733 1207 556 l 696 297 b 849 144 696 197 769 144 m 840 581 b 696 432 756 581 696 531 l 985 432 b 840 581 985 531 925 581 m 474 346 b 360 314 446 335 411 325 b 243 214 272 294 243 258 b 332 131 243 156 278 131 b 474 260 428 131 474 192 "},"b":{"ha":817,"x_min":0,"x_max":0,"o":"m 485 733 b 794 356 674 733 794 589 b 485 -22 794 122 674 -22 b 279 71 382 -22 307 33 l 276 71 l 276 0 l 54 0 l 54 993 l 276 993 l 276 640 l 279 640 b 485 733 307 678 382 733 m 426 144 b 572 356 517 144 572 217 b 426 567 572 494 517 567 b 281 356 336 567 281 494 b 426 144 281 217 336 144 "},"c":{"ha":750,"x_min":0,"x_max":0,"o":"m 514 446 b 388 567 507 503 476 567 b 244 356 296 567 244 489 b 388 144 244 222 294 144 b 514 268 476 144 507 204 l 732 268 b 389 -22 721 100 593 -22 b 22 356 164 -22 22 133 b 383 733 22 576 164 733 b 732 446 590 733 714 611 l 514 446 "},"ć":{"ha":750,"x_min":0,"x_max":0,"o":"m 607 1000 l 464 806 l 297 806 l 357 1000 m 514 446 b 388 567 507 503 476 567 b 244 356 296 567 244 489 b 388 144 244 222 294 144 b 514 268 476 144 507 204 l 732 268 b 389 -22 721 100 593 -22 b 22 356 164 -22 22 133 b 383 733 22 576 164 733 b 732 446 590 733 714 611 l 514 446 "},"č":{"ha":750,"x_min":0,"x_max":0,"o":"m 319 1000 l 382 904 l 385 904 l 447 1000 l 640 1000 l 492 806 l 275 806 l 126 1000 m 514 446 b 388 567 507 503 476 567 b 244 356 296 567 244 489 b 388 144 244 222 294 144 b 514 268 476 144 507 204 l 732 268 b 389 -22 721 100 593 -22 b 22 356 164 -22 22 133 b 383 733 22 576 164 733 b 732 446 590 733 714 611 l 514 446 "},"ç":{"ha":750,"x_min":0,"x_max":0,"o":"m 388 144 b 514 268 476 144 507 204 l 732 268 b 428 -21 722 111 608 -7 l 381 -72 l 381 -75 b 536 -168 460 -67 536 -96 b 354 -275 536 -235 453 -275 b 199 -235 289 -275 238 -258 l 240 -186 b 336 -207 267 -199 303 -207 b 397 -167 361 -207 397 -196 b 344 -129 397 -140 374 -129 b 296 -139 326 -129 311 -133 l 272 -106 l 346 -21 b 22 356 146 -1 22 147 b 383 733 22 576 164 733 b 732 446 590 733 714 611 l 514 446 b 388 567 507 503 476 567 b 244 356 296 567 244 489 b 388 144 244 222 294 144 "},"ċ":{"ha":750,"x_min":0,"x_max":0,"o":"m 276 903 b 383 1008 276 960 315 1008 b 489 903 451 1008 489 960 b 383 797 489 846 451 797 b 276 903 314 797 276 846 m 514 446 b 388 567 507 503 476 567 b 244 356 296 567 244 489 b 388 144 244 222 294 144 b 514 268 476 144 507 204 l 732 268 b 389 -22 721 100 593 -22 b 22 356 164 -22 22 133 b 383 733 22 576 164 733 b 732 446 590 733 714 611 l 514 446 "},"d":{"ha":817,"x_min":0,"x_max":0,"o":"m 763 993 l 763 0 l 540 0 l 540 71 l 538 71 b 332 -22 510 33 435 -22 b 22 356 143 -22 22 122 b 332 733 22 589 143 733 b 538 640 435 733 510 678 l 540 640 l 540 993 m 390 144 b 536 356 481 144 536 217 b 390 567 536 494 481 567 b 244 356 300 567 244 494 b 390 144 244 217 300 144 "},"ð":{"ha":804,"x_min":0,"x_max":0,"o":"m 614 875 b 778 439 700 779 778 632 b 393 -22 778 203 675 -22 b 22 357 156 -22 22 129 b 340 733 22 594 169 733 b 514 674 422 733 476 708 l 514 676 b 422 825 496 732 464 781 l 243 776 l 221 857 l 349 892 b 192 993 301 929 247 963 l 469 993 b 543 943 492 982 517 965 l 689 982 l 711 901 l 614 875 m 393 156 b 542 357 483 156 542 224 b 393 557 542 490 483 557 b 244 357 303 557 244 490 b 393 156 244 224 303 156 "},"ď":{"ha":817,"x_min":0,"x_max":0,"o":"m 931 1000 b 1029 876 997 1000 1029 944 b 846 700 1029 785 974 713 l 846 764 b 938 831 900 771 938 793 b 835 908 876 817 835 858 b 931 1000 835 958 876 1000 m 540 993 l 763 993 l 763 0 l 540 0 l 540 71 l 538 71 b 332 -22 510 33 435 -22 b 22 356 143 -22 22 122 b 332 733 22 589 143 733 b 538 640 435 733 510 678 l 540 640 m 390 144 b 536 356 481 144 536 217 b 390 567 536 494 481 567 b 244 356 300 567 244 494 b 390 144 244 217 300 144 "},"đ":{"ha":815,"x_min":0,"x_max":0,"o":"m 832 799 l 763 799 l 763 0 l 540 0 l 540 71 l 538 71 b 332 -22 510 33 435 -22 b 22 356 143 -22 22 122 b 332 733 22 589 143 733 b 538 640 435 733 510 678 l 540 640 l 540 799 l 349 799 l 349 924 l 540 924 l 540 993 l 763 993 l 763 924 l 832 924 m 390 144 b 536 356 481 144 536 217 b 390 567 536 494 481 567 b 244 356 300 567 244 494 b 390 144 244 217 300 144 "},"e":{"ha":778,"x_min":0,"x_max":0,"o":"m 397 144 b 524 215 474 144 510 181 l 744 215 b 401 -22 706 72 594 -22 b 22 356 165 -22 22 133 b 389 733 22 572 163 733 b 756 297 632 733 756 556 l 244 297 b 397 144 244 197 318 144 m 389 581 b 244 432 304 581 244 531 l 533 432 b 389 581 533 531 474 581 "},"é":{"ha":778,"x_min":0,"x_max":0,"o":"m 469 806 l 303 806 l 363 1000 l 613 1000 m 397 144 b 524 215 474 144 510 181 l 744 215 b 401 -22 706 72 594 -22 b 22 356 165 -22 22 133 b 389 733 22 572 163 733 b 756 297 632 733 756 556 l 244 297 b 397 144 244 197 318 144 m 389 581 b 244 432 304 581 244 531 l 533 432 b 389 581 533 531 474 581 "},"ě":{"ha":778,"x_min":0,"x_max":0,"o":"m 281 806 l 132 1000 l 325 1000 l 388 904 l 390 904 l 453 1000 l 646 1000 l 497 806 m 397 144 b 524 215 474 144 510 181 l 744 215 b 401 -22 706 72 594 -22 b 22 356 165 -22 22 133 b 389 733 22 572 163 733 b 756 297 632 733 756 556 l 244 297 b 397 144 244 197 318 144 m 389 581 b 244 432 304 581 244 531 l 533 432 b 389 581 533 531 474 581 "},"ê":{"ha":778,"x_min":0,"x_max":0,"o":"m 325 806 l 132 806 l 281 1000 l 497 1000 l 646 806 l 453 806 l 390 901 l 388 901 m 397 144 b 524 215 474 144 510 181 l 744 215 b 401 -22 706 72 594 -22 b 22 356 165 -22 22 133 b 389 733 22 572 163 733 b 756 297 632 733 756 556 l 244 297 b 397 144 244 197 318 144 m 389 581 b 244 432 304 581 244 531 l 533 432 b 389 581 533 531 474 581 "},"ë":{"ha":778,"x_min":0,"x_max":0,"o":"m 240 797 b 133 903 171 797 133 846 b 240 1008 133 960 172 1008 b 346 903 308 1008 346 960 b 240 797 346 846 308 797 m 539 797 b 432 903 469 797 432 846 b 539 1008 432 960 471 1008 b 644 903 607 1008 644 960 b 539 797 644 846 607 797 m 397 144 b 524 215 474 144 510 181 l 744 215 b 401 -22 706 72 594 -22 b 22 356 165 -22 22 133 b 389 733 22 572 163 733 b 756 297 632 733 756 556 l 244 297 b 397 144 244 197 318 144 m 389 581 b 244 432 304 581 244 531 l 533 432 b 389 581 533 531 474 581 "},"ė":{"ha":778,"x_min":0,"x_max":0,"o":"m 389 797 b 282 903 319 797 282 846 b 389 1008 282 960 321 1008 b 494 903 457 1008 494 960 b 389 797 494 846 457 797 m 397 144 b 524 215 474 144 510 181 l 744 215 b 401 -22 706 72 594 -22 b 22 356 165 -22 22 133 b 389 733 22 572 163 733 b 756 297 632 733 756 556 l 244 297 b 397 144 244 197 318 144 m 389 581 b 244 432 304 581 244 531 l 533 432 b 389 581 533 531 474 581 "},"è":{"ha":778,"x_min":0,"x_max":0,"o":"m 307 806 l 164 1000 l 414 1000 l 474 806 m 397 144 b 524 215 474 144 510 181 l 744 215 b 401 -22 706 72 594 -22 b 22 356 165 -22 22 133 b 389 733 22 572 163 733 b 756 297 632 733 756 556 l 244 297 b 397 144 244 197 318 144 m 389 581 b 244 432 304 581 244 531 l 533 432 b 389 581 533 531 474 581 "},"ē":{"ha":778,"x_min":0,"x_max":0,"o":"m 588 833 l 190 833 l 190 972 l 588 972 m 397 144 b 524 215 474 144 510 181 l 744 215 b 401 -22 706 72 594 -22 b 22 356 165 -22 22 133 b 389 733 22 572 163 733 b 756 297 632 733 756 556 l 244 297 b 397 144 244 197 318 144 m 389 581 b 244 432 304 581 244 531 l 533 432 b 389 581 533 531 474 581 "},"ę":{"ha":778,"x_min":0,"x_max":0,"o":"m 397 144 b 524 215 474 144 510 181 l 744 215 b 533 -4 715 108 647 29 b 472 -85 500 -33 472 -57 b 515 -115 472 -106 488 -115 b 572 -106 533 -115 553 -111 l 572 -231 b 460 -246 540 -239 499 -246 b 301 -129 356 -246 301 -204 b 364 -21 301 -81 331 -44 b 22 356 150 -6 22 146 b 389 733 22 572 163 733 b 756 297 632 733 756 556 l 244 297 b 397 144 244 197 318 144 m 389 581 b 244 432 304 581 244 531 l 533 432 b 389 581 533 531 474 581 "},"f":{"ha":485,"x_min":0,"x_max":0,"o":"m 467 825 b 343 742 372 825 343 825 l 343 711 l 467 711 l 467 544 l 343 544 l 343 0 l 121 0 l 121 544 l 15 544 l 15 711 l 121 711 l 121 760 b 329 1006 121 919 167 1006 b 467 992 392 1006 426 1000 l 467 825 "},"g":{"ha":794,"x_min":0,"x_max":0,"o":"m 740 711 l 740 69 b 390 -246 740 -165 606 -246 b 36 -15 165 -246 61 -129 l 258 -15 b 385 -86 272 -54 307 -86 b 518 85 485 -86 518 -33 l 518 126 l 515 126 b 321 33 488 89 425 33 b 22 383 139 33 22 178 b 321 733 22 589 139 733 b 515 640 425 733 488 678 l 518 640 l 518 711 m 379 200 b 514 383 469 200 514 268 b 379 567 514 499 469 567 b 244 383 289 567 244 499 b 379 200 244 268 289 200 "},"ğ":{"ha":794,"x_min":0,"x_max":0,"o":"m 368 797 b 146 1000 242 797 150 876 l 274 1000 b 368 933 278 960 308 933 b 463 1000 428 933 458 960 l 590 1000 b 368 797 585 881 497 797 m 740 711 l 740 69 b 390 -246 740 -165 606 -246 b 36 -15 165 -246 61 -129 l 258 -15 b 385 -86 272 -54 307 -86 b 518 85 485 -86 518 -33 l 518 126 l 515 126 b 321 33 488 89 425 33 b 22 383 139 33 22 178 b 321 733 22 589 139 733 b 515 640 425 733 488 678 l 518 640 l 518 711 m 379 200 b 514 383 469 200 514 268 b 379 567 514 499 469 567 b 244 383 289 567 244 499 b 379 200 244 268 289 200 "},"ģ":{"ha":794,"x_min":0,"x_max":0,"o":"m 367 790 b 257 914 296 790 257 846 b 440 1090 257 1006 313 1078 l 440 1026 b 349 960 386 1019 349 997 b 451 879 410 974 451 932 b 367 790 451 826 421 790 m 740 711 l 740 69 b 390 -246 740 -165 606 -246 b 36 -15 165 -246 61 -129 l 258 -15 b 385 -86 272 -54 307 -86 b 518 85 485 -86 518 -33 l 518 126 l 515 126 b 321 33 488 89 425 33 b 22 383 139 33 22 178 b 321 733 22 589 139 733 b 515 640 425 733 488 678 l 518 640 l 518 711 m 379 200 b 514 383 469 200 514 268 b 379 567 514 499 469 567 b 244 383 289 567 244 499 b 379 200 244 268 289 200 "},"ġ":{"ha":794,"x_min":0,"x_max":0,"o":"m 368 797 b 261 903 299 797 261 846 b 368 1008 261 960 300 1008 b 474 903 436 1008 474 960 b 368 797 474 846 436 797 m 740 711 l 740 69 b 390 -246 740 -165 606 -246 b 36 -15 165 -246 61 -129 l 258 -15 b 385 -86 272 -54 307 -86 b 518 85 485 -86 518 -33 l 518 126 l 515 126 b 321 33 488 89 425 33 b 22 383 139 33 22 178 b 321 733 22 589 139 733 b 515 640 425 733 488 678 l 518 640 l 518 711 m 379 200 b 514 383 469 200 514 268 b 379 567 514 499 469 567 b 244 383 289 567 244 499 b 379 200 244 268 289 200 "},"h":{"ha":792,"x_min":0,"x_max":0,"o":"m 500 733 b 743 481 650 733 743 643 l 743 0 l 521 0 l 521 410 b 406 553 521 517 486 553 b 276 411 335 553 276 510 l 276 0 l 54 0 l 54 993 l 276 993 l 276 608 l 279 608 b 500 733 317 674 386 733 "},"ħ":{"ha":790,"x_min":0,"x_max":0,"o":"m 499 733 b 742 481 649 733 742 643 l 742 0 l 519 0 l 519 410 b 404 553 519 517 485 553 b 275 411 333 553 275 510 l 275 0 l 53 0 l 53 799 l -17 799 l -17 924 l 53 924 l 53 993 l 275 993 l 275 924 l 478 924 l 478 799 l 275 799 l 275 608 l 278 608 b 499 733 315 674 385 733 "},"i":{"ha":331,"x_min":0,"x_max":0,"o":"m 165 796 b 54 894 103 796 54 829 b 165 993 54 958 103 993 b 276 894 228 993 276 958 b 165 796 276 829 228 796 m 276 711 l 276 0 l 54 0 l 54 711 "},"ı":{"ha":306,"x_min":0,"x_max":0,"o":"m 264 711 l 264 0 l 42 0 l 42 711 "},"í":{"ha":306,"x_min":0,"x_max":0,"o":"m 376 1000 l 233 806 l 67 806 l 126 1000 m 264 711 l 264 0 l 42 0 l 42 711 "},"î":{"ha":306,"x_min":0,"x_max":0,"o":"m 44 1000 l 261 1000 l 410 806 l 217 806 l 154 901 l 151 901 l 89 806 l -104 806 m 264 711 l 264 0 l 42 0 l 42 711 "},"ï":{"ha":306,"x_min":0,"x_max":0,"o":"m -103 903 b 4 1008 -103 960 -64 1008 b 110 903 72 1008 110 960 b 4 797 110 846 72 797 b -103 903 -65 797 -103 846 m 196 903 b 303 1008 196 960 235 1008 b 408 903 371 1008 408 960 b 303 797 408 846 371 797 b 196 903 233 797 196 846 m 264 711 l 264 0 l 42 0 l 42 711 "},"ì":{"ha":306,"x_min":0,"x_max":0,"o":"m 238 806 l 71 806 l -72 1000 l 178 1000 m 264 711 l 264 0 l 42 0 l 42 711 "},"ī":{"ha":306,"x_min":0,"x_max":0,"o":"m 351 972 l 351 833 l -46 833 l -46 972 m 264 711 l 264 0 l 42 0 l 42 711 "},"į":{"ha":306,"x_min":0,"x_max":0,"o":"m 153 797 b 46 903 83 797 46 846 b 153 1008 46 960 85 1008 b 258 903 221 1008 258 960 b 153 797 258 846 221 797 m 240 -115 b 297 -106 258 -115 278 -111 l 297 -231 b 185 -246 265 -239 224 -246 b 26 -129 81 -246 26 -204 b 124 0 26 -64 79 -21 l 42 0 l 42 711 l 264 711 l 264 0 b 197 -85 228 -31 197 -56 b 240 -115 197 -106 213 -115 "},"j":{"ha":335,"x_min":0,"x_max":0,"o":"m 169 796 b 58 894 107 796 58 829 b 169 993 58 958 107 993 b 281 894 232 993 281 958 b 169 796 281 829 232 796 m 281 711 l 281 0 b 72 -246 281 -160 235 -246 b -65 -231 10 -246 -25 -239 l -65 -64 b 58 17 29 -64 58 -64 l 58 711 "},"k":{"ha":778,"x_min":0,"x_max":0,"o":"m 276 993 l 276 471 l 485 711 l 750 711 l 499 444 l 779 0 l 515 0 l 347 283 l 276 210 l 276 0 l 54 0 l 54 993 "},"ķ":{"ha":778,"x_min":0,"x_max":0,"o":"m 276 993 l 276 471 l 485 711 l 750 711 l 499 444 l 779 0 l 515 0 l 347 283 l 276 210 l 276 0 l 54 0 l 54 993 m 394 -235 b 292 -157 333 -249 292 -207 b 388 -65 292 -107 333 -65 b 486 -189 454 -65 486 -121 b 303 -365 486 -281 431 -353 l 303 -301 b 394 -235 357 -294 394 -272 "},"l":{"ha":333,"x_min":0,"x_max":0,"o":"m 278 993 l 278 0 l 56 0 l 56 993 "},"ĺ":{"ha":333,"x_min":0,"x_max":0,"o":"m 397 1264 l 254 1069 l 88 1069 l 147 1264 m 278 993 l 278 0 l 56 0 l 56 993 "},"ľ":{"ha":333,"x_min":0,"x_max":0,"o":"m 453 831 b 350 908 392 817 350 858 b 446 1000 350 958 392 1000 b 544 876 513 1000 544 944 b 361 700 544 785 489 713 l 361 764 b 453 831 415 771 453 793 m 278 993 l 278 0 l 56 0 l 56 993 "},"ļ":{"ha":333,"x_min":0,"x_max":0,"o":"m 278 993 l 278 0 l 56 0 l 56 993 m 172 -235 b 69 -157 111 -249 69 -207 b 165 -65 69 -107 111 -65 b 264 -189 232 -65 264 -121 b 81 -365 264 -281 208 -353 l 81 -301 b 172 -235 135 -294 172 -272 "},"ł":{"ha":383,"x_min":0,"x_max":0,"o":"m 389 592 l 307 531 l 307 0 l 85 0 l 85 368 l 3 307 l 3 469 l 85 531 l 85 993 l 307 993 l 307 693 l 389 754 "},"m":{"ha":1206,"x_min":0,"x_max":0,"o":"m 929 733 b 1157 481 1072 733 1157 643 l 1157 0 l 932 0 l 932 410 b 831 553 932 517 910 553 b 715 411 760 553 715 510 l 715 0 l 493 0 l 493 410 b 392 553 493 517 471 553 b 276 411 322 553 276 510 l 276 0 l 54 0 l 54 711 l 276 711 l 276 608 l 279 608 b 501 733 317 674 394 733 b 688 608 594 733 660 682 l 690 608 b 929 733 751 679 814 733 "},"n":{"ha":792,"x_min":0,"x_max":0,"o":"m 513 733 b 743 481 650 733 743 643 l 743 0 l 521 0 l 521 410 b 410 553 521 517 483 553 b 276 411 325 553 276 510 l 276 0 l 54 0 l 54 711 l 276 711 l 276 608 l 279 608 b 513 733 317 674 386 733 "},"ń":{"ha":792,"x_min":0,"x_max":0,"o":"m 521 806 l 354 806 l 414 1000 l 664 1000 m 513 733 b 743 481 650 733 743 643 l 743 0 l 521 0 l 521 410 b 410 553 521 517 483 553 b 276 411 325 553 276 510 l 276 0 l 54 0 l 54 711 l 276 711 l 276 608 l 279 608 b 513 733 317 674 386 733 "},"ň":{"ha":792,"x_min":0,"x_max":0,"o":"m 332 806 l 183 1000 l 376 1000 l 439 904 l 442 904 l 504 1000 l 697 1000 l 549 806 m 513 733 b 743 481 650 733 743 643 l 743 0 l 521 0 l 521 410 b 410 553 521 517 483 553 b 276 411 325 553 276 510 l 276 0 l 54 0 l 54 711 l 276 711 l 276 608 l 279 608 b 513 733 317 674 386 733 "},"ņ":{"ha":792,"x_min":0,"x_max":0,"o":"m 513 733 b 743 481 650 733 743 643 l 743 0 l 521 0 l 521 410 b 410 553 521 517 483 553 b 276 411 325 553 276 510 l 276 0 l 54 0 l 54 711 l 276 711 l 276 608 l 279 608 b 513 733 317 674 386 733 m 397 -65 b 496 -189 464 -65 496 -121 b 313 -365 496 -281 440 -353 l 313 -301 b 404 -235 367 -294 404 -272 b 301 -157 343 -249 301 -207 b 397 -65 301 -107 343 -65 "},"ŋ":{"ha":792,"x_min":0,"x_max":0,"o":"m 513 733 b 743 481 650 733 743 643 l 743 -17 b 535 -262 743 -176 697 -262 b 397 -247 472 -262 438 -256 l 397 -81 b 521 0 492 -81 521 -81 l 521 410 b 410 553 521 517 483 553 b 276 411 325 553 276 510 l 276 0 l 54 0 l 54 711 l 276 711 l 276 608 l 279 608 b 513 733 317 674 386 733 "},"ñ":{"ha":792,"x_min":0,"x_max":0,"o":"m 371 876 b 325 825 333 876 325 850 l 210 825 b 332 1013 210 960 253 1013 b 510 960 396 1013 457 960 b 556 1013 547 960 556 986 l 671 1013 b 549 825 671 876 628 825 b 371 876 485 825 424 876 m 513 733 b 743 481 650 733 743 643 l 743 0 l 521 0 l 521 410 b 410 553 521 517 483 553 b 276 411 325 553 276 510 l 276 0 l 54 0 l 54 711 l 276 711 l 276 608 l 279 608 b 513 733 317 674 386 733 "},"o":{"ha":804,"x_min":0,"x_max":0,"o":"m 403 -22 b 782 356 639 -22 782 135 b 403 733 782 576 639 733 b 22 356 165 733 22 576 b 403 -22 22 135 165 -22 m 403 144 b 244 356 304 144 244 218 b 403 567 244 493 304 567 b 560 356 500 567 560 493 b 403 144 560 218 500 144 "},"ó":{"ha":804,"x_min":0,"x_max":0,"o":"m 626 1000 l 483 806 l 317 806 l 376 1000 m 403 -22 b 782 356 639 -22 782 135 b 403 733 782 576 639 733 b 22 356 165 733 22 576 b 403 -22 22 135 165 -22 m 403 144 b 244 356 304 144 244 218 b 403 567 244 493 304 567 b 560 356 500 567 560 493 b 403 144 560 218 500 144 "},"ô":{"ha":804,"x_min":0,"x_max":0,"o":"m 294 1000 l 511 1000 l 660 806 l 467 806 l 404 901 l 401 901 l 339 806 l 146 806 m 403 -22 b 782 356 639 -22 782 135 b 403 733 782 576 639 733 b 22 356 165 733 22 576 b 403 -22 22 135 165 -22 m 403 144 b 244 356 304 144 244 218 b 403 567 244 493 304 567 b 560 356 500 567 560 493 b 403 144 560 218 500 144 "},"ö":{"ha":804,"x_min":0,"x_max":0,"o":"m 147 903 b 254 1008 147 960 186 1008 b 360 903 322 1008 360 960 b 254 797 360 846 322 797 b 147 903 185 797 147 846 m 446 903 b 553 1008 446 960 485 1008 b 658 903 621 1008 658 960 b 553 797 658 846 621 797 b 446 903 483 797 446 846 m 403 -22 b 782 356 639 -22 782 135 b 403 733 782 576 639 733 b 22 356 165 733 22 576 b 403 -22 22 135 165 -22 m 403 144 b 244 356 304 144 244 218 b 403 567 244 493 304 567 b 560 356 500 567 560 493 b 403 144 560 218 500 144 "},"ò":{"ha":804,"x_min":0,"x_max":0,"o":"m 488 806 l 321 806 l 178 1000 l 428 1000 m 403 -22 b 782 356 639 -22 782 135 b 403 733 782 576 639 733 b 22 356 165 733 22 576 b 403 -22 22 135 165 -22 m 403 144 b 244 356 304 144 244 218 b 403 567 244 493 304 567 b 560 356 500 567 560 493 b 403 144 560 218 500 144 "},"ő":{"ha":804,"x_min":0,"x_max":0,"o":"m 469 1000 l 326 806 l 160 806 l 219 1000 m 775 1000 l 632 806 l 465 806 l 525 1000 m 403 -22 b 782 356 639 -22 782 135 b 403 733 782 576 639 733 b 22 356 165 733 22 576 b 403 -22 22 135 165 -22 m 403 144 b 244 356 304 144 244 218 b 403 567 244 493 304 567 b 560 356 500 567 560 493 b 403 144 560 218 500 144 "},"ō":{"ha":804,"x_min":0,"x_max":0,"o":"m 601 972 l 601 833 l 204 833 l 204 972 m 403 -22 b 782 356 639 -22 782 135 b 403 733 782 576 639 733 b 22 356 165 733 22 576 b 403 -22 22 135 165 -22 m 403 144 b 244 356 304 144 244 218 b 403 567 244 493 304 567 b 560 356 500 567 560 493 b 403 144 560 218 500 144 "},"ø":{"ha":804,"x_min":0,"x_max":0,"o":"m 706 599 b 782 356 756 535 782 451 b 403 -22 782 135 639 -22 b 160 51 304 -22 222 4 l 90 -18 l 32 42 l 100 110 b 22 356 50 175 22 258 b 403 733 22 576 165 733 b 647 658 501 733 585 706 l 717 728 l 776 669 l 706 599 m 244 356 b 256 265 244 321 249 292 l 511 521 b 403 567 483 551 447 567 b 244 356 304 567 244 493 m 403 144 b 560 356 500 144 560 218 b 550 443 560 388 557 417 l 296 188 b 403 144 322 160 358 144 "},"õ":{"ha":804,"x_min":0,"x_max":0,"o":"m 172 825 b 294 1013 172 960 215 1013 b 472 960 358 1013 419 960 b 518 1013 510 960 518 986 l 633 1013 b 511 825 633 876 590 825 b 333 876 447 825 386 876 b 288 825 296 876 288 850 l 172 825 m 403 -22 b 782 356 639 -22 782 135 b 403 733 782 576 639 733 b 22 356 165 733 22 576 b 403 -22 22 135 165 -22 m 403 144 b 244 356 304 144 244 218 b 403 567 244 493 304 567 b 560 356 500 567 560 493 b 403 144 560 218 500 144 "},"œ":{"ha":1354,"x_min":0,"x_max":0,"o":"m 972 144 b 1099 215 1049 144 1085 181 l 1319 215 b 976 -22 1281 72 1169 -22 b 689 93 853 -22 754 21 b 403 -22 624 21 526 -22 b 22 356 165 -22 22 135 b 403 733 22 576 165 733 b 689 618 526 733 624 690 b 964 733 753 690 847 733 b 1331 297 1207 733 1331 556 l 819 297 b 972 144 819 197 893 144 m 964 581 b 819 432 879 581 819 531 l 1108 432 b 964 581 1108 531 1049 581 m 403 144 b 560 356 500 144 560 218 b 403 567 560 493 500 567 b 244 356 304 567 244 493 b 403 144 244 218 304 144 "},"p":{"ha":822,"x_min":0,"x_max":0,"o":"m 485 733 b 794 356 674 733 794 589 b 485 -22 794 122 674 -22 b 279 71 382 -22 307 33 l 276 71 l 276 -246 l 54 -246 l 54 711 l 276 711 l 276 640 l 279 640 b 485 733 307 678 382 733 m 426 144 b 572 356 517 144 572 217 b 426 567 572 494 517 567 b 281 356 336 567 281 494 b 426 144 281 217 336 144 "},"þ":{"ha":817,"x_min":0,"x_max":0,"o":"m 485 733 b 794 356 674 733 794 589 b 485 -22 794 122 674 -22 b 279 99 368 -22 307 33 l 276 99 l 276 -246 l 54 -246 l 54 993 l 276 993 l 276 613 l 279 613 b 485 733 307 678 368 733 m 426 144 b 572 356 517 144 572 217 b 426 567 572 494 517 567 b 281 356 336 567 281 494 b 426 144 281 217 336 144 "},"q":{"ha":822,"x_min":0,"x_max":0,"o":"m 768 711 l 768 -246 l 546 -246 l 546 71 l 543 71 b 338 -22 515 33 440 -22 b 28 356 149 -22 28 122 b 338 733 28 589 149 733 b 543 640 440 733 515 678 l 546 640 l 546 711 m 396 144 b 542 356 486 144 542 217 b 396 567 542 494 486 567 b 250 356 306 567 250 494 b 396 144 250 217 306 144 "},"r":{"ha":532,"x_min":0,"x_max":0,"o":"m 453 724 b 514 718 472 724 489 724 l 514 524 l 511 524 b 276 331 397 544 276 482 l 276 0 l 54 0 l 54 711 l 276 711 l 276 594 l 279 594 b 453 724 314 674 375 724 "},"ŕ":{"ha":532,"x_min":0,"x_max":0,"o":"m 365 806 l 199 806 l 258 1000 l 508 1000 m 453 724 b 514 718 472 724 489 724 l 514 524 l 511 524 b 276 331 397 544 276 482 l 276 0 l 54 0 l 54 711 l 276 711 l 276 594 l 279 594 b 453 724 314 674 375 724 "},"ř":{"ha":532,"x_min":0,"x_max":0,"o":"m 176 806 l 28 1000 l 221 1000 l 283 904 l 286 904 l 349 1000 l 542 1000 l 393 806 m 279 594 b 453 724 314 674 375 724 b 514 718 472 724 489 724 l 514 524 l 511 524 b 276 331 397 544 276 482 l 276 0 l 54 0 l 54 711 l 276 711 l 276 594 l 279 594 "},"ŗ":{"ha":532,"x_min":0,"x_max":0,"o":"m 453 724 b 514 718 472 724 489 724 l 514 524 l 511 524 b 276 331 397 544 276 482 l 276 0 l 54 0 l 54 711 l 276 711 l 276 594 l 279 594 b 453 724 314 674 375 724 m 172 -65 b 271 -189 239 -65 271 -121 b 88 -365 271 -281 215 -353 l 88 -301 b 179 -235 142 -294 179 -272 b 76 -157 118 -249 76 -207 b 172 -65 76 -107 118 -65 "},"s":{"ha":700,"x_min":0,"x_max":0,"o":"m 401 449 b 681 210 542 418 681 371 b 369 -22 681 60 567 -22 b 11 236 115 -22 18 92 l 219 236 b 361 131 226 165 274 131 b 458 192 424 131 458 151 b 279 286 458 253 392 261 b 25 506 158 313 25 357 b 336 733 25 635 136 733 b 660 493 564 733 653 618 l 451 493 b 342 581 444 550 414 581 b 247 524 279 581 247 558 b 401 449 247 474 292 472 "},"ś":{"ha":700,"x_min":0,"x_max":0,"o":"m 569 1000 l 426 806 l 260 806 l 319 1000 m 401 449 b 681 210 542 418 681 371 b 369 -22 681 60 567 -22 b 11 236 115 -22 18 92 l 219 236 b 361 131 226 165 274 131 b 458 192 424 131 458 151 b 279 286 458 253 392 261 b 25 506 158 313 25 357 b 336 733 25 635 136 733 b 660 493 564 733 653 618 l 451 493 b 342 581 444 550 414 581 b 247 524 279 581 247 558 b 401 449 247 474 292 472 "},"š":{"ha":700,"x_min":0,"x_max":0,"o":"m 282 1000 l 344 904 l 347 904 l 410 1000 l 603 1000 l 454 806 l 238 806 l 89 1000 m 401 449 b 681 210 542 418 681 371 b 369 -22 681 60 567 -22 b 11 236 115 -22 18 92 l 219 236 b 361 131 226 165 274 131 b 458 192 424 131 458 151 b 279 286 458 253 392 261 b 25 506 158 313 25 357 b 336 733 25 635 136 733 b 660 493 564 733 653 618 l 451 493 b 342 581 444 550 414 581 b 247 524 279 581 247 558 b 401 449 247 474 292 472 "},"ş":{"ha":700,"x_min":0,"x_max":0,"o":"m 360 -72 l 360 -75 b 515 -168 439 -67 515 -96 b 333 -275 515 -235 432 -275 b 178 -235 268 -275 217 -258 l 219 -186 b 315 -207 246 -199 282 -207 b 376 -167 340 -207 376 -196 b 324 -129 376 -140 353 -129 b 275 -139 306 -129 290 -133 l 251 -106 l 325 -21 b 11 236 104 -8 18 100 l 219 236 b 361 131 226 165 274 131 b 458 192 424 131 458 151 b 279 286 458 253 392 261 b 25 506 158 313 25 357 b 336 733 25 635 136 733 b 660 493 564 733 653 618 l 451 493 b 342 581 444 550 414 581 b 247 524 279 581 247 558 b 401 449 247 474 292 472 b 681 210 542 418 681 371 b 406 -21 681 69 581 -11 "},"ș":{"ha":700,"x_min":0,"x_max":0,"o":"m 401 449 b 681 210 542 418 681 371 b 369 -22 681 60 567 -22 b 11 236 115 -22 18 92 l 219 236 b 361 131 226 165 274 131 b 458 192 424 131 458 151 b 279 286 458 253 392 261 b 25 506 158 313 25 357 b 336 733 25 635 136 733 b 660 493 564 733 653 618 l 451 493 b 342 581 444 550 414 581 b 247 524 279 581 247 558 b 401 449 247 474 292 472 m 375 -235 b 272 -157 314 -249 272 -207 b 368 -65 272 -107 314 -65 b 467 -189 435 -65 467 -121 b 283 -365 467 -281 411 -353 l 283 -301 b 375 -235 338 -294 375 -272 "},"ß":{"ha":800,"x_min":0,"x_max":0,"o":"m 276 0 l 54 0 l 54 651 b 393 1015 54 863 161 1015 b 722 746 586 1015 722 888 b 597 550 722 628 661 576 l 597 547 b 778 269 715 510 778 388 b 482 -22 778 81 639 -22 b 346 0 426 -22 389 -15 l 346 167 b 556 311 519 135 556 221 b 381 476 556 404 506 476 l 346 476 l 346 615 l 375 615 b 500 735 450 615 500 663 b 393 849 500 806 460 849 b 276 707 322 849 276 811 "},"t":{"ha":488,"x_min":0,"x_max":0,"o":"m 336 544 l 336 250 b 460 169 336 169 365 169 l 460 3 b 322 -12 419 -6 385 -12 b 114 233 160 -12 114 74 l 114 544 l 15 544 l 15 711 l 114 711 l 114 910 l 336 910 l 336 711 l 460 711 l 460 544 "},"ŧ":{"ha":488,"x_min":0,"x_max":0,"o":"m 336 544 l 336 450 l 460 450 l 460 325 l 336 325 l 336 250 b 460 169 336 169 365 169 l 460 3 b 322 -12 419 -6 385 -12 b 114 233 160 -12 114 74 l 114 325 l 15 325 l 15 450 l 114 450 l 114 544 l 15 544 l 15 711 l 114 711 l 114 910 l 336 910 l 336 711 l 460 711 l 460 544 "},"ť":{"ha":488,"x_min":0,"x_max":0,"o":"m 481 1069 b 579 946 547 1069 579 1014 b 396 769 579 854 524 782 l 396 833 b 488 900 450 840 488 863 b 385 978 426 886 385 928 b 481 1069 385 1028 426 1069 m 336 711 l 460 711 l 460 544 l 336 544 l 336 250 b 460 169 336 169 365 169 l 460 3 b 322 -12 419 -6 385 -12 b 114 233 160 -12 114 74 l 114 544 l 15 544 l 15 711 l 114 711 l 114 910 l 336 910 "},"ţ":{"ha":488,"x_min":0,"x_max":0,"o":"m 311 -61 b 467 -154 390 -53 467 -82 b 285 -261 467 -221 383 -261 b 129 -221 219 -261 168 -244 l 171 -172 b 267 -193 197 -185 233 -193 b 328 -153 292 -193 328 -182 b 275 -115 328 -126 304 -115 b 226 -125 257 -115 242 -119 l 203 -92 l 274 -10 b 114 233 150 7 114 90 l 114 544 l 15 544 l 15 711 l 114 711 l 114 910 l 336 910 l 336 711 l 460 711 l 460 544 l 336 544 l 336 250 b 460 169 336 169 365 169 l 460 3 b 353 -12 426 -4 397 -10 l 311 -58 l 311 -61 "},"ț":{"ha":488,"x_min":0,"x_max":0,"o":"m 336 544 l 336 250 b 460 169 336 169 365 169 l 460 3 b 322 -12 419 -6 385 -12 b 114 233 160 -12 114 74 l 114 544 l 15 544 l 15 711 l 114 711 l 114 910 l 336 910 l 336 711 l 460 711 l 460 544 m 319 -51 b 418 -175 386 -51 418 -107 b 235 -351 418 -267 363 -339 l 235 -287 b 326 -221 289 -281 326 -258 b 224 -143 265 -235 224 -193 b 319 -51 224 -93 265 -51 "},"u":{"ha":792,"x_min":0,"x_max":0,"o":"m 738 711 l 738 0 l 515 0 l 515 103 l 513 103 b 279 -22 475 38 406 -22 b 49 231 142 -22 49 68 l 49 711 l 271 711 l 271 301 b 382 158 271 194 308 158 b 515 300 467 158 515 201 l 515 711 "},"ú":{"ha":792,"x_min":0,"x_max":0,"o":"m 474 806 l 307 806 l 367 1000 l 617 1000 m 738 711 l 738 0 l 515 0 l 515 103 l 513 103 b 279 -22 475 38 406 -22 b 49 231 142 -22 49 68 l 49 711 l 271 711 l 271 301 b 382 158 271 194 308 158 b 515 300 467 158 515 201 l 515 711 "},"û":{"ha":792,"x_min":0,"x_max":0,"o":"m 329 806 l 136 806 l 285 1000 l 501 1000 l 650 806 l 457 806 l 394 901 l 392 901 m 738 711 l 738 0 l 515 0 l 515 103 l 513 103 b 279 -22 475 38 406 -22 b 49 231 142 -22 49 68 l 49 711 l 271 711 l 271 301 b 382 158 271 194 308 158 b 515 300 467 158 515 201 l 515 711 "},"ü":{"ha":792,"x_min":0,"x_max":0,"o":"m 244 797 b 138 903 175 797 138 846 b 244 1008 138 960 176 1008 b 350 903 313 1008 350 960 b 244 797 350 846 313 797 m 543 797 b 436 903 474 797 436 846 b 543 1008 436 960 475 1008 b 649 903 611 1008 649 960 b 543 797 649 846 611 797 m 738 711 l 738 0 l 515 0 l 515 103 l 513 103 b 279 -22 475 38 406 -22 b 49 231 142 -22 49 68 l 49 711 l 271 711 l 271 301 b 382 158 271 194 308 158 b 515 300 467 158 515 201 l 515 711 "},"ù":{"ha":792,"x_min":0,"x_max":0,"o":"m 311 806 l 168 1000 l 418 1000 l 478 806 m 738 711 l 738 0 l 515 0 l 515 103 l 513 103 b 279 -22 475 38 406 -22 b 49 231 142 -22 49 68 l 49 711 l 271 711 l 271 301 b 382 158 271 194 308 158 b 515 300 467 158 515 201 l 515 711 "},"ű":{"ha":792,"x_min":0,"x_max":0,"o":"m 317 806 l 150 806 l 210 1000 l 460 1000 m 456 806 l 515 1000 l 765 1000 l 622 806 m 515 711 l 738 711 l 738 0 l 515 0 l 515 103 l 513 103 b 279 -22 475 38 406 -22 b 49 231 142 -22 49 68 l 49 711 l 271 711 l 271 301 b 382 158 271 194 308 158 b 515 300 467 158 515 201 "},"ū":{"ha":792,"x_min":0,"x_max":0,"o":"m 592 833 l 194 833 l 194 972 l 592 972 m 738 711 l 738 0 l 515 0 l 515 103 l 513 103 b 279 -22 475 38 406 -22 b 49 231 142 -22 49 68 l 49 711 l 271 711 l 271 301 b 382 158 271 194 308 158 b 515 300 467 158 515 201 l 515 711 "},"ų":{"ha":792,"x_min":0,"x_max":0,"o":"m 714 -115 b 771 -106 732 -115 751 -111 l 771 -231 b 658 -246 739 -239 697 -246 b 500 -129 554 -246 500 -204 b 597 0 500 -64 553 -21 l 515 0 l 515 103 l 513 103 b 279 -22 475 38 406 -22 b 49 231 142 -22 49 68 l 49 711 l 271 711 l 271 301 b 382 158 271 194 308 158 b 515 300 467 158 515 201 l 515 711 l 738 711 l 738 0 b 671 -85 701 -31 671 -56 b 714 -115 671 -106 686 -115 "},"ů":{"ha":792,"x_min":0,"x_max":0,"o":"m 393 790 b 251 929 317 790 251 843 b 393 1068 251 1014 317 1068 b 535 929 471 1068 535 1014 b 393 790 535 843 471 790 m 393 992 b 336 929 360 992 336 969 b 393 867 336 889 360 867 b 451 929 428 867 451 889 b 393 992 451 969 428 992 m 738 711 l 738 0 l 515 0 l 515 103 l 513 103 b 279 -22 475 38 406 -22 b 49 231 142 -22 49 68 l 49 711 l 271 711 l 271 301 b 382 158 271 194 308 158 b 515 300 467 158 515 201 l 515 711 "},"v":{"ha":728,"x_min":0,"x_max":0,"o":"m 218 711 l 363 247 l 365 247 l 510 711 l 732 711 l 486 0 l 242 0 l -4 711 "},"w":{"ha":1088,"x_min":0,"x_max":0,"o":"m 219 711 l 326 278 l 329 278 l 446 711 l 640 711 l 757 278 l 760 278 l 867 711 l 1089 711 l 890 0 l 682 0 l 544 450 l 542 450 l 404 0 l 196 0 l -3 711 "},"ẃ":{"ha":1088,"x_min":0,"x_max":0,"o":"m 767 1000 l 624 806 l 457 806 l 517 1000 m 219 711 l 326 278 l 329 278 l 446 711 l 640 711 l 757 278 l 760 278 l 867 711 l 1089 711 l 890 0 l 682 0 l 544 450 l 542 450 l 404 0 l 196 0 l -3 711 "},"ŵ":{"ha":1088,"x_min":0,"x_max":0,"o":"m 435 1000 l 651 1000 l 800 806 l 607 806 l 544 901 l 542 901 l 479 806 l 286 806 m 219 711 l 326 278 l 329 278 l 446 711 l 640 711 l 757 278 l 760 278 l 867 711 l 1089 711 l 890 0 l 682 0 l 544 450 l 542 450 l 404 0 l 196 0 l -3 711 "},"ẅ":{"ha":1088,"x_min":0,"x_max":0,"o":"m 288 903 b 394 1008 288 960 326 1008 b 500 903 463 1008 500 960 b 394 797 500 846 463 797 b 288 903 325 797 288 846 m 586 903 b 693 1008 586 960 625 1008 b 799 903 761 1008 799 960 b 693 797 799 846 761 797 b 586 903 624 797 586 846 m 219 711 l 326 278 l 329 278 l 446 711 l 640 711 l 757 278 l 760 278 l 867 711 l 1089 711 l 890 0 l 682 0 l 544 450 l 542 450 l 404 0 l 196 0 l -3 711 "},"ẁ":{"ha":1088,"x_min":0,"x_max":0,"o":"m 628 806 l 461 806 l 318 1000 l 568 1000 m 219 711 l 326 278 l 329 278 l 446 711 l 640 711 l 757 278 l 760 278 l 867 711 l 1089 711 l 890 0 l 682 0 l 544 450 l 542 450 l 404 0 l 196 0 l -3 711 "},"x":{"ha":778,"x_min":0,"x_max":0,"o":"m 274 711 l 388 506 l 390 506 l 504 711 l 740 711 l 524 363 l 768 0 l 518 0 l 390 219 l 388 219 l 260 0 l 10 0 l 254 363 l 38 711 "},"y":{"ha":735,"x_min":0,"x_max":0,"o":"m 497 -14 b 219 -246 436 -196 369 -246 b 96 -232 182 -246 142 -242 l 96 -65 l 99 -65 b 233 -36 160 -79 210 -72 b 228 103 254 -4 250 40 l -4 711 l 218 711 l 379 244 l 382 244 l 517 711 l 739 711 "},"ý":{"ha":735,"x_min":0,"x_max":0,"o":"m 592 1000 l 449 806 l 282 806 l 342 1000 m 497 -14 b 219 -246 436 -196 369 -246 b 96 -232 182 -246 142 -242 l 96 -65 l 99 -65 b 233 -36 160 -79 210 -72 b 228 103 254 -4 250 40 l -4 711 l 218 711 l 379 244 l 382 244 l 517 711 l 739 711 "},"ŷ":{"ha":735,"x_min":0,"x_max":0,"o":"m 260 1000 l 476 1000 l 625 806 l 432 806 l 369 901 l 367 901 l 304 806 l 111 806 m 497 -14 b 219 -246 436 -196 369 -246 b 96 -232 182 -246 142 -242 l 96 -65 l 99 -65 b 233 -36 160 -79 210 -72 b 228 103 254 -4 250 40 l -4 711 l 218 711 l 379 244 l 382 244 l 517 711 l 739 711 "},"ÿ":{"ha":735,"x_min":0,"x_max":0,"o":"m 113 903 b 219 1008 113 960 151 1008 b 325 903 288 1008 325 960 b 219 797 325 846 288 797 b 113 903 150 797 113 846 m 411 903 b 518 1008 411 960 450 1008 b 624 903 586 1008 624 960 b 518 797 624 846 586 797 b 411 903 449 797 411 846 m 497 -14 b 219 -246 436 -196 369 -246 b 96 -232 182 -246 142 -242 l 96 -65 l 99 -65 b 233 -36 160 -79 210 -72 b 228 103 254 -4 250 40 l -4 711 l 218 711 l 379 244 l 382 244 l 517 711 l 739 711 "},"ỳ":{"ha":735,"x_min":0,"x_max":0,"o":"m 453 806 l 286 806 l 143 1000 l 393 1000 m 497 -14 b 219 -246 436 -196 369 -246 b 96 -232 182 -246 142 -242 l 96 -65 l 99 -65 b 233 -36 160 -79 210 -72 b 228 103 254 -4 250 40 l -4 711 l 218 711 l 379 244 l 382 244 l 517 711 l 739 711 "},"z":{"ha":701,"x_min":0,"x_max":0,"o":"m 379 542 l 379 544 l 61 544 l 61 711 l 657 711 l 657 551 l 311 169 l 311 167 l 671 167 l 671 0 l 33 0 l 33 160 "},"ź":{"ha":701,"x_min":0,"x_max":0,"o":"m 583 1000 l 440 806 l 274 806 l 333 1000 m 379 542 l 379 544 l 61 544 l 61 711 l 657 711 l 657 551 l 311 169 l 311 167 l 671 167 l 671 0 l 33 0 l 33 160 "},"ž":{"ha":701,"x_min":0,"x_max":0,"o":"m 296 1000 l 358 904 l 361 904 l 424 1000 l 617 1000 l 468 806 l 251 806 l 103 1000 m 379 542 l 379 544 l 61 544 l 61 711 l 657 711 l 657 551 l 311 169 l 311 167 l 671 167 l 671 0 l 33 0 l 33 160 "},"ż":{"ha":701,"x_min":0,"x_max":0,"o":"m 253 903 b 360 1008 253 960 292 1008 b 465 903 428 1008 465 960 b 360 797 465 846 428 797 b 253 903 290 797 253 846 m 379 542 l 379 544 l 61 544 l 61 711 l 657 711 l 657 551 l 311 169 l 311 167 l 671 167 l 671 0 l 33 0 l 33 160 "},"⁄":{"ha":390,"x_min":0,"x_max":0,"o":"m 642 993 l -99 0 l -251 0 l 489 993 "},"*":{"ha":606,"x_min":0,"x_max":0,"o":"m 408 713 l 507 579 l 394 497 l 303 638 l 211 497 l 99 579 l 197 713 l 43 753 l 86 885 l 235 824 l 235 993 l 374 993 l 374 824 l 521 885 l 564 753 "},"\\":{"ha":607,"x_min":0,"x_max":0,"o":"m 197 993 l 582 0 l 401 0 l 17 993 "},"·":{"ha":325,"x_min":0,"x_max":0,"o":"m 163 313 b 44 431 96 313 44 358 b 163 549 44 501 96 549 b 281 431 228 549 281 501 b 163 313 281 358 228 313 "},"•":{"ha":519,"x_min":0,"x_max":0,"o":"m 260 236 b 51 444 132 236 51 331 b 260 653 51 558 132 653 b 468 444 388 653 468 558 b 260 236 468 331 388 236 "},":":{"ha":333,"x_min":0,"x_max":0,"o":"m 167 418 b 49 536 100 418 49 464 b 167 654 49 607 100 654 b 285 536 232 654 285 607 b 167 418 285 464 232 418 m 167 -12 b 49 106 100 -12 49 33 b 167 224 49 176 100 224 b 285 106 232 224 285 176 b 167 -12 285 33 232 -12 "},",":{"ha":339,"x_min":0,"x_max":0,"o":"m 176 -12 b 44 106 99 -12 44 31 b 168 224 44 181 99 224 b 294 57 253 224 294 160 b 58 -232 294 -104 206 -212 l 58 -135 b 176 -12 128 -125 176 -69 "},"…":{"ha":908,"x_min":0,"x_max":0,"o":"m 163 -12 b 44 106 96 -12 44 33 b 163 224 44 176 96 224 b 281 106 228 224 281 176 b 163 -12 281 33 228 -12 m 454 -12 b 336 106 388 -12 336 33 b 454 224 336 176 388 224 b 572 106 519 224 572 176 b 454 -12 572 33 519 -12 m 746 -12 b 628 106 679 -12 628 33 b 746 224 628 176 679 224 b 864 106 811 224 864 176 b 746 -12 864 33 811 -12 "},"!":{"ha":367,"x_min":0,"x_max":0,"o":"m 301 993 l 301 776 l 239 325 l 128 325 l 65 776 l 65 993 m 183 -12 b 65 106 117 -12 65 33 b 183 224 65 176 117 224 b 301 106 249 224 301 176 b 183 -12 301 33 249 -12 "},"¡":{"ha":367,"x_min":0,"x_max":0,"o":"m 183 825 b 301 707 249 825 301 779 b 183 589 301 636 249 589 b 65 707 117 589 65 636 b 183 825 65 779 117 825 m 65 36 l 128 488 l 239 488 l 301 36 l 301 -181 l 65 -181 "},"#":{"ha":833,"x_min":0,"x_max":0,"o":"m 671 544 l 635 374 l 733 374 l 699 207 l 599 207 l 554 0 l 388 0 l 432 207 l 304 207 l 260 0 l 93 0 l 138 207 l 33 207 l 68 374 l 174 374 l 210 544 l 104 544 l 140 711 l 246 711 l 299 960 l 465 960 l 413 711 l 540 711 l 593 960 l 760 960 l 707 711 l 806 711 l 769 544 m 504 544 l 376 544 l 340 374 l 468 374 "},".":{"ha":325,"x_min":0,"x_max":0,"o":"m 163 -12 b 44 106 96 -12 44 33 b 163 224 44 176 96 224 b 281 106 228 224 281 176 b 163 -12 281 33 228 -12 "},"?":{"ha":768,"x_min":0,"x_max":0,"o":"m 19 685 b 407 1015 19 868 147 1015 b 739 746 600 1015 739 907 b 588 513 739 635 685 567 b 454 325 490 458 454 426 l 274 325 b 351 579 274 444 258 507 b 503 735 425 636 503 656 b 393 825 503 781 468 825 b 256 685 303 825 256 775 m 365 -12 b 247 106 299 -12 247 33 b 365 224 247 176 299 224 b 483 106 431 224 483 176 b 365 -12 483 33 431 -12 "},"¿":{"ha":760,"x_min":0,"x_max":0,"o":"m 397 828 b 515 710 464 828 515 782 b 397 592 515 639 464 592 b 279 710 332 592 279 639 b 397 828 279 782 332 828 m 743 131 b 356 -200 743 -53 615 -200 b 24 69 163 -200 24 -92 b 175 303 24 181 78 249 b 308 490 272 357 308 389 l 489 490 b 411 236 489 371 504 308 b 260 81 338 179 260 160 b 369 -10 260 35 294 -10 b 507 131 460 -10 507 40 "},"\"":{"ha":586,"x_min":0,"x_max":0,"o":"m 251 993 l 224 619 l 85 619 l 57 993 m 529 993 l 501 619 l 363 619 l 335 993 "},"'":{"ha":308,"x_min":0,"x_max":0,"o":"m 251 993 l 224 619 l 85 619 l 57 993 "},";":{"ha":347,"x_min":0,"x_max":0,"o":"m 174 418 b 56 536 107 418 56 464 b 174 654 56 607 107 654 b 292 536 239 654 292 607 b 174 418 292 464 239 418 m 181 -12 b 49 106 103 -12 49 31 b 172 224 49 181 103 224 b 299 57 257 224 299 160 b 63 -232 299 -104 210 -212 l 63 -135 b 181 -12 132 -125 181 -69 "},"/":{"ha":582,"x_min":0,"x_max":0,"o":"m 197 0 l 17 0 l 401 993 l 582 993 "},"_":{"ha":597,"x_min":0,"x_max":0,"o":"m 601 -76 l 601 -267 l -4 -267 l -4 -76 "},"{":{"ha":553,"x_min":0,"x_max":0,"o":"m 35 539 b 129 629 111 538 129 558 l 129 800 b 469 1069 129 1033 250 1069 l 507 1069 l 507 879 l 469 879 b 365 750 415 879 365 851 l 365 593 b 268 444 365 514 336 472 l 268 442 b 365 292 336 414 365 372 l 365 135 b 469 0 365 28 415 0 l 507 0 l 507 -190 l 469 -190 b 129 85 250 -190 129 -149 l 129 256 b 35 347 129 326 111 347 l 35 539 "},"}":{"ha":554,"x_min":0,"x_max":0,"o":"m 519 347 b 425 256 443 347 425 326 l 425 85 b 85 -190 425 -149 304 -190 l 47 -190 l 47 0 l 85 0 b 189 135 139 0 189 28 l 189 292 b 286 442 189 372 218 414 l 286 444 b 189 593 218 472 189 514 l 189 750 b 85 879 189 851 139 879 l 47 879 l 47 1069 l 85 1069 b 425 800 304 1069 425 1033 l 425 629 b 519 539 425 558 443 538 "},"[":{"ha":553,"x_min":0,"x_max":0,"o":"m 507 1069 l 507 879 l 317 879 l 317 0 l 507 0 l 507 -190 l 81 -190 l 81 1069 "},"]":{"ha":553,"x_min":0,"x_max":0,"o":"m 474 -190 l 47 -190 l 47 0 l 238 0 l 238 879 l 47 879 l 47 1069 l 474 1069 "},"(":{"ha":474,"x_min":0,"x_max":0,"o":"m 450 1069 b 315 440 376 901 315 697 b 450 -190 315 189 376 -22 l 256 -190 b 79 440 168 -50 79 189 b 256 1069 79 700 168 929 "},")":{"ha":474,"x_min":0,"x_max":0,"o":"m 218 1069 b 394 440 306 929 394 700 b 218 -190 394 189 306 -50 l 24 -190 b 158 440 97 -22 158 189 b 24 1069 158 697 97 901 l 218 1069 "},"—":{"ha":1389,"x_min":0,"x_max":0,"o":"m 1250 446 l 1250 256 l 139 256 l 139 446 "},"–":{"ha":694,"x_min":0,"x_max":0,"o":"m 694 446 l 694 256 l 0 256 l 0 446 "},"-":{"ha":465,"x_min":0,"x_max":0,"o":"m 422 446 l 422 256 l 44 256 l 44 446 "},"«":{"ha":563,"x_min":0,"x_max":0,"o":"m 42 454 l 256 654 l 256 446 l 147 351 l 147 349 l 256 254 l 256 46 l 42 246 m 307 454 l 521 654 l 521 446 l 413 351 l 413 349 l 521 254 l 521 46 l 307 246 "},"»":{"ha":563,"x_min":0,"x_max":0,"o":"m 42 46 l 42 254 l 150 349 l 150 351 l 42 446 l 42 654 l 256 454 l 256 246 m 307 46 l 307 254 l 415 349 l 415 351 l 307 446 l 307 654 l 521 454 l 521 246 "},"‹":{"ha":368,"x_min":0,"x_max":0,"o":"m 61 454 l 297 654 l 297 446 l 179 351 l 179 349 l 297 254 l 297 46 l 61 246 "},"›":{"ha":368,"x_min":0,"x_max":0,"o":"m 71 46 l 71 254 l 189 349 l 189 351 l 71 446 l 71 654 l 307 454 l 307 246 "},"„":{"ha":647,"x_min":0,"x_max":0,"o":"m 176 -12 b 44 106 99 -12 44 31 b 168 224 44 181 99 224 b 294 57 253 224 294 160 b 58 -232 294 -104 206 -212 l 58 -135 b 176 -12 128 -125 176 -69 m 482 -12 b 350 106 404 -12 350 31 b 474 224 350 181 404 224 b 600 57 558 224 600 160 b 364 -232 600 -104 511 -212 l 364 -135 b 482 -12 433 -125 482 -69 "},"“":{"ha":647,"x_min":0,"x_max":0,"o":"m 165 778 b 297 660 243 778 297 735 b 174 542 297 585 243 542 b 47 708 89 542 47 606 b 283 997 47 869 136 978 l 283 900 b 165 778 214 890 165 835 m 471 778 b 603 660 549 778 603 735 b 479 542 603 585 549 542 b 353 708 394 542 353 606 b 589 997 353 869 442 978 l 589 900 b 471 778 519 890 471 835 "},"”":{"ha":647,"x_min":0,"x_max":0,"o":"m 176 769 b 44 888 99 769 44 813 b 168 1006 44 963 99 1006 b 294 839 253 1006 294 942 b 58 550 294 678 206 569 l 58 647 b 176 769 128 657 176 713 m 482 769 b 350 888 404 769 350 813 b 474 1006 350 963 404 1006 b 600 839 558 1006 600 942 b 364 550 600 678 511 569 l 364 647 b 482 769 433 657 482 713 "},"‘":{"ha":349,"x_min":0,"x_max":0,"o":"m 165 778 b 297 660 243 778 297 735 b 174 542 297 585 243 542 b 47 708 89 542 47 606 b 283 997 47 869 136 978 l 283 900 b 165 778 214 890 165 835 "},"’":{"ha":342,"x_min":0,"x_max":0,"o":"m 176 769 b 44 888 99 769 44 813 b 168 1006 44 963 99 1006 b 294 839 253 1006 294 942 b 58 550 294 678 206 569 l 58 647 b 176 769 128 657 176 713 "},"‚":{"ha":342,"x_min":0,"x_max":0,"o":"m 176 -12 b 44 106 99 -12 44 31 b 168 224 44 181 99 224 b 294 57 253 224 294 160 b 58 -232 294 -104 206 -212 l 58 -135 b 176 -12 128 -125 176 -69 "}," ":{"ha":236,"x_min":0,"x_max":0,"o":""},"¢":{"ha":756,"x_min":0,"x_max":0,"o":"m 428 149 b 514 268 486 165 508 215 l 732 268 b 428 -21 722 111 610 -6 l 428 -149 l 344 -149 l 344 -19 b 22 356 146 -1 22 149 b 344 732 22 563 147 714 l 344 825 l 428 825 l 428 732 b 732 446 608 715 715 599 l 514 446 b 428 561 508 493 486 546 l 428 149 m 244 356 b 344 151 244 244 279 172 l 344 560 b 244 356 281 539 244 467 "},"¤":{"ha":711,"x_min":0,"x_max":0,"o":"m 639 485 b 608 350 639 435 628 389 l 692 267 l 574 149 l 492 231 b 357 201 451 213 407 201 b 221 232 306 201 260 213 l 138 149 l 19 267 l 103 350 b 74 485 85 390 74 435 b 103 619 74 535 85 579 l 19 703 l 138 821 l 221 738 b 357 768 260 757 306 768 b 492 739 407 768 453 758 l 574 821 l 692 703 l 610 621 b 639 485 629 581 639 535 m 357 326 b 472 485 440 326 472 396 b 357 643 472 574 440 643 b 240 485 272 643 240 574 b 357 326 240 396 272 326 "},"$":{"ha":868,"x_min":0,"x_max":0,"o":"m 826 264 b 474 -22 826 106 696 -15 l 474 -143 l 390 -143 l 390 -19 b 22 313 168 -3 22 110 l 258 313 b 390 174 258 222 322 186 l 390 382 b 350 393 378 385 364 389 b 50 686 179 443 50 503 b 390 974 50 856 189 965 l 390 1056 l 474 1056 l 474 971 b 813 664 672 951 806 835 l 576 664 b 474 775 568 719 528 758 l 474 588 b 826 264 658 536 826 474 m 286 704 b 390 611 286 657 318 635 l 390 782 b 286 704 328 778 286 754 m 474 168 b 590 254 547 172 590 200 b 474 357 590 307 546 333 l 474 168 "},"€":{"ha":953,"x_min":0,"x_max":0,"o":"m 521 168 b 675 351 632 168 669 240 l 911 351 b 526 -22 903 132 785 -22 b 115 346 264 -22 147 136 l 42 346 l 42 429 l 107 429 b 106 476 106 444 106 461 l 106 510 l 42 510 l 42 593 l 113 593 b 526 974 142 810 258 974 b 911 603 783 974 901 819 l 675 603 b 521 783 668 711 631 783 b 349 593 414 783 365 711 l 569 593 l 569 510 l 342 510 l 342 476 b 343 429 342 460 342 444 l 569 429 l 569 346 l 350 346 b 521 168 369 235 418 168 "},"£":{"ha":814,"x_min":0,"x_max":0,"o":"m 561 168 b 707 232 631 168 671 203 l 789 64 b 574 -22 718 10 669 -22 b 321 65 433 -22 414 65 b 144 0 263 65 217 46 l 32 171 b 158 383 107 219 158 300 b 157 401 158 389 158 396 l 39 401 l 39 526 l 106 526 b 53 692 79 572 53 622 b 415 974 53 819 129 974 b 796 617 686 974 796 829 l 560 617 b 419 783 560 724 515 783 b 289 668 322 783 289 732 b 339 526 289 614 314 569 l 546 526 l 546 401 l 393 401 b 394 376 394 393 394 385 b 285 196 394 288 353 244 l 286 193 b 388 221 318 208 351 221 b 561 168 471 221 486 168 "},"¥":{"ha":897,"x_min":0,"x_max":0,"o":"m 596 425 l 793 425 l 793 342 l 564 342 l 564 261 l 793 261 l 793 178 l 564 178 l 564 0 l 328 0 l 328 178 l 99 178 l 99 261 l 328 261 l 328 342 l 99 342 l 99 425 l 296 425 l 1 953 l 265 953 l 444 576 l 447 576 l 626 953 l 890 953 "},"+":{"ha":786,"x_min":0,"x_max":0,"o":"m 56 361 l 56 553 l 297 553 l 297 804 l 489 804 l 489 553 l 731 553 l 731 361 l 489 361 l 489 110 l 297 110 l 297 361 "},"−":{"ha":786,"x_min":0,"x_max":0,"o":"m 731 549 l 731 358 l 56 358 l 56 549 "},"×":{"ha":786,"x_min":0,"x_max":0,"o":"m 524 457 l 724 257 l 589 122 l 389 322 l 189 122 l 54 257 l 254 457 l 54 656 l 189 790 l 389 590 l 589 790 l 724 656 "},"÷":{"ha":786,"x_min":0,"x_max":0,"o":"m 393 626 b 282 728 326 626 282 663 b 393 829 282 792 326 829 b 504 728 458 829 504 792 b 393 626 504 663 458 626 m 56 549 l 731 549 l 731 358 l 56 358 m 393 78 b 282 179 326 78 282 114 b 393 281 282 243 326 281 b 504 179 458 281 504 243 b 393 78 504 114 458 78 "},"=":{"ha":782,"x_min":0,"x_max":0,"o":"m 721 672 l 721 482 l 71 482 l 71 672 m 721 378 l 721 188 l 71 188 l 71 378 "},"≠":{"ha":782,"x_min":0,"x_max":0,"o":"m 490 482 l 440 378 l 721 378 l 721 188 l 350 188 l 300 81 l 161 81 l 211 188 l 71 188 l 71 378 l 301 378 l 351 482 l 71 482 l 71 672 l 442 672 l 493 782 l 632 782 l 581 672 l 721 672 l 721 482 "},">":{"ha":697,"x_min":0,"x_max":0,"o":"m 65 276 l 450 428 l 450 431 l 65 582 l 65 772 l 638 533 l 638 325 l 65 86 "},"<":{"ha":721,"x_min":0,"x_max":0,"o":"m 60 325 l 60 533 l 632 772 l 632 582 l 247 431 l 247 428 l 632 276 l 632 86 "},"≥":{"ha":697,"x_min":0,"x_max":0,"o":"m 65 371 l 450 475 l 450 478 l 65 582 l 65 772 l 638 581 l 638 372 l 65 181 m 638 157 l 638 -10 l 65 -10 l 65 157 "},"≤":{"ha":721,"x_min":0,"x_max":0,"o":"m 60 372 l 60 581 l 632 772 l 632 582 l 247 478 l 247 475 l 632 371 l 632 181 m 632 -10 l 60 -10 l 60 157 l 632 157 "},"±":{"ha":786,"x_min":0,"x_max":0,"o":"m 56 614 l 297 614 l 297 804 l 489 804 l 489 614 l 731 614 l 731 424 l 489 424 l 489 233 l 297 233 l 297 424 l 56 424 m 731 167 l 731 0 l 56 0 l 56 167 "},"≈":{"ha":758,"x_min":0,"x_max":0,"o":"m 557 454 b 243 517 463 454 307 517 b 186 454 197 517 186 485 l 47 454 b 213 697 47 618 100 697 b 526 635 307 697 463 635 b 583 697 572 635 583 667 l 722 697 b 557 454 722 533 669 454 m 557 156 b 243 218 463 156 307 218 b 186 156 197 218 186 186 l 47 156 b 213 399 47 319 100 399 b 526 336 307 399 463 336 b 583 399 572 336 583 368 l 722 399 b 557 156 722 235 669 156 "},"~":{"ha":615,"x_min":0,"x_max":0,"o":"m 33 332 b 199 575 33 496 86 575 b 396 513 293 575 332 513 b 453 575 442 513 453 544 l 592 575 b 426 332 592 411 539 332 b 229 394 332 332 293 394 b 172 332 183 394 172 363 l 33 332 "},"¬":{"ha":728,"x_min":0,"x_max":0,"o":"m 56 407 l 56 597 l 651 597 l 651 186 l 429 186 l 429 407 "},"∅":{"ha":1107,"x_min":0,"x_max":0,"o":"m 950 807 b 1065 479 1022 721 1065 610 b 554 -22 1065 182 840 -22 b 228 85 429 -22 317 17 l 138 -6 l 68 64 l 157 153 b 42 479 85 238 42 350 b 554 982 42 776 268 982 b 879 875 679 982 792 943 l 969 965 l 1039 896 l 950 807 m 139 479 b 226 222 139 378 172 290 l 808 804 b 554 885 739 856 650 885 b 139 479 324 885 139 721 m 554 75 b 968 479 783 75 968 239 b 881 738 968 581 935 669 l 299 156 b 554 75 368 104 457 75 "},"∞":{"ha":1007,"x_min":0,"x_max":0,"o":"m 31 424 b 268 682 31 601 147 682 b 503 564 371 682 447 631 l 506 564 b 739 682 561 631 636 682 b 976 424 860 682 976 601 b 739 165 976 249 860 165 b 506 300 636 165 561 233 l 503 300 b 268 165 447 233 371 165 b 31 424 147 165 31 249 m 278 318 b 428 424 344 318 386 371 b 278 529 386 476 344 529 b 183 424 211 529 183 476 b 278 318 183 371 211 318 m 729 318 b 824 424 796 318 824 371 b 729 529 824 476 796 529 b 579 424 663 529 621 476 b 729 318 621 371 663 318 "},"∫":{"ha":508,"x_min":0,"x_max":0,"o":"m 374 0 b 151 -246 374 -160 314 -246 b -7 -232 89 -246 33 -240 l -7 -65 b 138 46 88 -65 138 -65 l 138 783 b 360 1029 138 943 197 1029 b 518 1015 422 1029 478 1024 l 518 849 b 374 738 424 849 374 849 l 374 0 "},"∏":{"ha":999,"x_min":0,"x_max":0,"o":"m 925 993 l 925 -139 l 689 -139 l 689 803 l 310 803 l 310 -139 l 74 -139 l 74 993 "},"∑":{"ha":849,"x_min":0,"x_max":0,"o":"m 394 438 l 394 440 l 44 800 l 44 993 l 794 993 l 794 803 l 321 803 l 321 800 l 631 492 l 631 394 l 311 54 l 311 51 l 808 51 l 808 -139 l 44 -139 l 44 56 "},"√":{"ha":906,"x_min":0,"x_max":0,"o":"m 279 506 l 413 142 l 415 142 l 660 993 l 896 993 l 525 -139 l 303 -139 l 126 315 l 19 315 l 19 506 "},"∂":{"ha":806,"x_min":0,"x_max":0,"o":"m 536 569 b 222 803 506 707 404 803 l 222 993 b 772 439 614 993 772 744 b 374 -22 772 217 669 -22 b 28 301 164 -22 28 103 b 335 654 28 485 164 654 b 536 567 444 654 499 615 m 379 154 b 536 331 483 154 536 238 b 407 478 536 408 497 478 b 250 303 304 478 250 394 b 379 154 250 224 290 154 "},"%":{"ha":1206,"x_min":0,"x_max":0,"o":"m 283 425 b 28 703 110 425 28 553 b 283 982 28 854 110 982 b 538 703 458 982 538 854 b 283 425 538 553 458 425 m 421 0 l 282 0 l 786 960 l 925 960 m 283 550 b 357 703 340 550 357 597 b 283 857 357 808 340 857 b 208 703 226 857 208 808 b 283 550 208 597 226 550 m 925 -22 b 669 256 751 -22 669 106 b 925 535 669 407 751 535 b 1179 256 1100 535 1179 407 b 925 -22 1179 106 1100 -22 m 925 103 b 999 256 982 103 999 150 b 925 410 999 361 982 410 b 850 256 868 410 850 361 b 925 103 850 150 868 103 "},"‰":{"ha":1771,"x_min":0,"x_max":0,"o":"m 283 425 b 28 703 110 425 28 553 b 283 982 28 854 110 982 b 538 703 458 982 538 854 b 283 425 538 553 458 425 m 421 0 l 282 0 l 786 960 l 925 960 m 283 550 b 357 703 340 550 357 597 b 283 857 357 808 340 857 b 208 703 226 857 208 808 b 283 550 208 597 226 550 m 925 -22 b 669 256 751 -22 669 106 b 925 535 669 407 751 535 b 1179 256 1100 535 1179 407 b 925 -22 1179 106 1100 -22 m 1490 -22 b 1235 256 1317 -22 1235 106 b 1490 535 1235 407 1317 535 b 1744 256 1665 535 1744 407 b 1490 -22 1744 106 1665 -22 m 925 103 b 999 256 982 103 999 150 b 925 410 999 361 982 410 b 850 256 868 410 850 361 b 925 103 850 150 868 103 m 1490 103 b 1564 256 1547 103 1564 150 b 1490 410 1564 361 1547 410 b 1415 256 1433 410 1415 361 b 1490 103 1415 150 1433 103 "},"↑":{"ha":944,"x_min":0,"x_max":0,"o":"m 793 454 l 556 676 l 556 0 l 389 0 l 389 676 l 151 454 l 42 561 l 472 960 l 903 561 "},"↗":{"ha":844,"x_min":0,"x_max":0,"o":"m 649 250 l 638 575 l 160 97 l 42 215 l 521 693 l 196 704 l 193 857 l 779 835 l 803 249 "},"→":{"ha":1043,"x_min":0,"x_max":0,"o":"m 496 124 l 718 361 l 42 361 l 42 528 l 718 528 l 496 765 l 603 875 l 1001 444 l 603 14 "},"↘":{"ha":811,"x_min":0,"x_max":0,"o":"m 779 60 l 193 38 l 196 190 l 521 201 l 42 679 l 160 797 l 638 319 l 649 644 l 803 646 "},"↓":{"ha":944,"x_min":0,"x_max":0,"o":"m 472 -56 l 42 343 l 151 450 l 389 228 l 389 904 l 556 904 l 556 228 l 793 450 l 903 343 "},"↙":{"ha":811,"x_min":0,"x_max":0,"o":"m 163 644 l 174 319 l 651 797 l 769 679 l 290 201 l 615 190 l 618 38 l 32 60 l 8 646 "},"←":{"ha":1043,"x_min":0,"x_max":0,"o":"m 42 444 l 440 875 l 547 765 l 325 528 l 1001 528 l 1001 361 l 325 361 l 547 124 l 440 14 "},"↖":{"ha":811,"x_min":0,"x_max":0,"o":"m 32 835 l 618 857 l 615 704 l 290 693 l 769 215 l 651 97 l 174 575 l 163 250 l 8 249 "},"↔":{"ha":1583,"x_min":0,"x_max":0,"o":"m 1542 444 l 1144 14 l 1038 124 l 1260 361 l 325 361 l 547 124 l 440 13 l 42 443 l 440 875 l 547 765 l 325 528 l 1258 528 l 1038 765 l 1143 875 "},"↕":{"ha":944,"x_min":0,"x_max":0,"o":"m 793 260 l 903 153 l 472 -246 l 42 153 l 151 260 l 389 38 l 389 808 l 151 586 l 42 693 l 472 1092 l 903 693 l 793 586 l 556 808 l 556 38 "},"◊":{"ha":828,"x_min":0,"x_max":0,"o":"m 301 993 l 525 993 l 806 496 l 526 0 l 303 0 l 22 496 m 569 496 l 414 803 l 411 803 l 258 496 l 414 190 l 417 190 "},"@":{"ha":1263,"x_min":0,"x_max":0,"o":"m 939 110 b 708 222 847 110 746 151 l 706 222 b 542 115 678 157 631 115 b 322 410 422 115 322 218 b 569 718 322 601 436 718 b 719 625 658 718 694 676 l 722 625 l 732 708 l 922 708 l 878 360 b 953 235 865 265 900 235 b 1082 444 1033 235 1082 300 b 649 868 1082 667 935 868 b 201 421 389 868 201 667 b 635 -25 201 147 361 -25 b 883 19 722 -25 799 -14 l 928 -90 b 635 -150 835 -140 738 -150 b 49 421 269 -150 49 78 b 649 993 49 736 297 993 b 1221 449 1026 993 1221 736 b 939 110 1221 199 1103 110 m 590 268 b 704 438 681 268 704 340 b 618 565 704 521 681 565 b 510 396 556 565 510 507 b 590 268 510 326 528 268 "},"&":{"ha":968,"x_min":0,"x_max":0,"o":"m 688 0 l 642 56 b 374 -22 568 7 479 -22 b 31 244 144 -22 31 93 b 253 524 31 399 140 467 b 136 763 185 604 136 665 b 435 1015 136 889 242 1014 b 733 763 617 1017 732 889 b 525 513 735 649 658 582 l 661 356 b 708 497 683 403 700 451 l 903 497 b 792 203 892 401 854 294 l 965 0 m 435 825 b 344 749 374 825 344 789 b 429 621 344 704 379 671 b 525 749 492 663 525 701 b 435 825 525 789 499 825 m 401 168 b 522 199 447 168 488 179 l 343 417 b 267 289 279 371 267 328 b 401 168 267 224 310 168 "},"¶":{"ha":838,"x_min":0,"x_max":0,"o":"m 328 465 b 38 725 140 465 38 558 b 328 993 38 892 140 993 l 763 993 l 763 0 l 624 0 l 624 868 l 525 868 l 525 0 l 386 0 l 386 465 "},"§":{"ha":868,"x_min":0,"x_max":0,"o":"m 833 372 b 693 165 833 278 783 204 b 765 -4 736 125 765 72 b 454 -246 765 -147 654 -246 b 124 6 222 -246 131 -131 l 346 6 b 460 -93 353 -62 379 -93 b 543 -26 511 -93 543 -71 b 375 118 543 42 464 78 b 40 397 194 200 40 242 b 181 604 40 492 90 565 b 108 774 138 644 108 697 b 419 1015 108 917 219 1015 b 750 764 651 1015 743 900 l 528 764 b 414 863 521 832 494 863 b 331 796 363 863 331 840 b 499 651 331 728 410 692 b 833 372 679 569 833 528 m 539 260 b 611 318 586 264 611 285 b 376 489 611 390 517 419 l 335 510 b 263 451 288 506 263 485 b 497 281 263 379 357 350 "},"©":{"ha":1135,"x_min":0,"x_max":0,"o":"m 568 -22 b 56 496 254 -22 56 199 b 568 1015 56 793 254 1015 b 1079 496 882 1015 1079 793 b 568 -22 1079 199 882 -22 m 568 47 b 996 496 839 47 996 242 b 568 946 996 751 839 946 b 139 496 296 946 139 751 b 568 47 139 242 296 47 m 668 571 b 569 671 663 618 643 671 b 457 496 493 671 457 607 b 569 322 457 386 493 322 b 668 424 643 322 663 371 l 847 424 b 576 185 839 286 744 185 b 274 496 390 185 274 313 b 565 808 274 678 385 808 b 847 571 736 808 833 707 l 668 571 "},"®":{"ha":738,"x_min":0,"x_max":0,"o":"m 369 343 b 36 679 183 343 36 486 b 369 1015 36 872 183 1015 b 701 679 556 1015 701 872 b 369 343 701 486 556 343 m 369 413 b 618 681 524 413 618 518 b 369 947 618 842 524 947 b 119 681 215 947 119 842 b 369 413 119 518 215 413 m 224 861 l 394 861 b 522 757 474 861 522 825 b 450 668 522 708 494 678 l 450 667 b 528 506 540 651 507 511 l 528 500 l 433 500 b 371 626 415 515 449 626 l 314 626 l 314 500 l 224 500 m 314 700 l 376 700 b 432 743 413 700 432 714 b 376 788 432 774 413 788 l 314 788 "},"™":{"ha":999,"x_min":0,"x_max":0,"o":"m 43 868 l 43 993 l 385 993 l 385 868 l 276 868 l 276 611 l 151 611 l 151 868 m 604 993 l 678 792 l 681 792 l 756 993 l 925 993 l 925 611 l 797 611 l 797 854 l 794 854 l 724 611 l 633 611 l 564 854 l 561 854 l 561 611 l 436 611 l 436 993 "},"°":{"ha":521,"x_min":0,"x_max":0,"o":"m 261 589 b 44 803 126 589 44 689 b 261 1015 44 917 126 1015 b 478 803 394 1015 478 917 b 261 589 478 689 394 589 m 261 700 b 353 803 304 700 353 729 b 261 904 353 876 304 904 b 169 803 218 904 169 876 b 261 700 169 729 218 700 "},"|":{"ha":313,"x_min":0,"x_max":0,"o":"m 233 1047 l 233 -192 l 81 -192 l 81 1047 "},"¦":{"ha":313,"x_min":0,"x_max":0,"o":"m 233 1047 l 233 533 l 81 533 l 81 1047 m 233 340 l 233 -192 l 81 -192 l 81 340 "},"†":{"ha":818,"x_min":0,"x_max":0,"o":"m 47 521 l 47 711 l 292 711 l 292 993 l 528 993 l 528 711 l 771 711 l 771 521 l 528 521 l 528 -246 l 292 -246 l 292 521 "},"‡":{"ha":819,"x_min":0,"x_max":0,"o":"m 47 76 l 47 267 l 292 267 l 292 521 l 47 521 l 47 711 l 292 711 l 292 993 l 528 993 l 528 711 l 771 711 l 771 521 l 528 521 l 528 267 l 771 267 l 771 76 l 528 76 l 528 -246 l 292 -246 l 292 76 "},"^":{"ha":647,"x_min":0,"x_max":0,"o":"m 407 993 l 639 611 l 431 611 l 324 799 l 322 799 l 217 611 l 8 611 l 240 993 "},"̈":{"ha":0,"x_min":0,"x_max":0,"o":"m -553 903 b -446 1008 -553 960 -514 1008 b -340 903 -378 1008 -340 960 b -446 797 -340 846 -378 797 b -553 903 -515 797 -553 846 m -254 903 b -147 1008 -254 960 -215 1008 b -42 903 -79 1008 -42 960 b -147 797 -42 846 -79 797 b -254 903 -217 797 -254 846 "},"̇":{"ha":0,"x_min":0,"x_max":0,"o":"m -254 903 b -147 1008 -254 960 -215 1008 b -42 903 -79 1008 -42 960 b -147 797 -42 846 -79 797 b -254 903 -217 797 -254 846 "},"̀":{"ha":0,"x_min":0,"x_max":0,"o":"m -42 806 l -208 806 l -351 1000 l -101 1000 "},"́":{"ha":0,"x_min":0,"x_max":0,"o":"m -42 1000 l -185 806 l -351 806 l -292 1000 "},"̋":{"ha":0,"x_min":0,"x_max":0,"o":"m -347 1000 l -490 806 l -657 806 l -597 1000 m -42 1000 l -185 806 l -351 806 l -292 1000 "},"̂":{"ha":0,"x_min":0,"x_max":0,"o":"m -407 1000 l -190 1000 l -42 806 l -235 806 l -297 901 l -300 901 l -362 806 l -556 806 "},"̌":{"ha":0,"x_min":0,"x_max":0,"o":"m -362 1000 l -300 904 l -297 904 l -235 1000 l -42 1000 l -190 806 l -407 806 l -556 1000 "},"̆":{"ha":0,"x_min":0,"x_max":0,"o":"m -264 797 b -486 1000 -390 797 -482 876 l -358 1000 b -264 933 -354 960 -324 933 b -169 1000 -204 933 -174 960 l -42 1000 b -264 797 -47 881 -135 797 "},"̊":{"ha":0,"x_min":0,"x_max":0,"o":"m -183 790 b -325 929 -260 790 -325 843 b -183 1068 -325 1014 -260 1068 b -42 929 -106 1068 -42 1014 b -183 790 -42 843 -106 790 m -183 867 b -125 929 -149 867 -125 889 b -183 992 -125 969 -149 992 b -240 929 -217 992 -240 969 b -183 867 -240 889 -217 867 "},"̃":{"ha":0,"x_min":0,"x_max":0,"o":"m -503 825 b -381 1013 -503 960 -460 1013 b -203 960 -317 1013 -256 960 b -157 1013 -165 960 -157 986 l -42 1013 b -164 825 -42 876 -85 825 b -342 876 -228 825 -289 876 b -387 825 -379 876 -387 850 l -503 825 "},"̄":{"ha":0,"x_min":0,"x_max":0,"o":"m -42 972 l -42 833 l -439 833 l -439 972 "},"̒":{"ha":0,"x_min":0,"x_max":0,"o":"m -144 960 b -42 879 -83 974 -42 932 b -126 790 -42 826 -72 790 b -236 914 -197 790 -236 846 b -53 1090 -236 1006 -181 1078 l -53 1026 b -144 960 -107 1019 -144 997 "},"̦":{"ha":0,"x_min":0,"x_max":0,"o":"m -133 -235 b -236 -157 -194 -249 -236 -207 b -140 -65 -236 -107 -194 -65 b -42 -189 -74 -65 -42 -121 b -225 -365 -42 -281 -97 -353 l -225 -301 b -133 -235 -171 -294 -133 -272 "},"̧":{"ha":0,"x_min":0,"x_max":0,"o":"m -189 -72 l -189 -75 b -33 -168 -110 -67 -33 -96 b -215 -275 -33 -235 -117 -275 b -371 -235 -281 -275 -332 -258 l -329 -186 b -233 -207 -303 -199 -267 -207 b -172 -167 -208 -207 -172 -196 b -225 -129 -172 -140 -196 -129 b -274 -139 -243 -129 -258 -133 l -297 -106 l -218 -14 l -136 -14 "},"̨":{"ha":0,"x_min":0,"x_max":0,"o":"m -154 -246 b -312 -129 -258 -246 -312 -204 b -215 0 -312 -64 -260 -21 l -75 0 b -142 -85 -111 -31 -142 -56 b -99 -115 -142 -106 -126 -115 b -42 -106 -81 -115 -61 -111 l -42 -231 b -154 -246 -74 -239 -115 -246 "},"̵":{"ha":0,"x_min":0,"x_max":0,"o":"m -42 451 l -664 451 l -664 576 l -42 576 "},"̶":{"ha":0,"x_min":0,"x_max":0,"o":"m -42 397 l -792 397 l -792 601 l -42 601 "},"̷":{"ha":0,"x_min":0,"x_max":0,"o":"m -728 -18 l -42 669 l -101 728 l -786 42 "},"̸":{"ha":0,"x_min":0,"x_max":0,"o":"m -728 -18 l -42 669 l -101 728 l -786 42 "},"´":{"ha":664,"x_min":0,"x_max":0,"o":"m 547 1000 l 404 806 l 238 806 l 297 1000 "},"˘":{"ha":690,"x_min":0,"x_max":0,"o":"m 372 797 b 150 1000 246 797 154 876 l 278 1000 b 372 933 282 960 313 933 b 467 1000 432 933 463 960 l 594 1000 b 372 797 589 881 501 797 "},"ˇ":{"ha":696,"x_min":0,"x_max":0,"o":"m 285 1000 l 347 904 l 350 904 l 413 1000 l 606 1000 l 457 806 l 240 806 l 92 1000 "},"¸":{"ha":703,"x_min":0,"x_max":0,"o":"m 342 -72 l 342 -75 b 497 -168 421 -67 497 -96 b 315 -275 497 -235 414 -275 b 160 -235 250 -275 199 -258 l 201 -186 b 297 -207 228 -199 264 -207 b 358 -167 322 -207 358 -196 b 306 -129 358 -140 335 -129 b 257 -139 288 -129 272 -133 l 233 -106 l 313 -14 l 394 -14 "},"ˆ":{"ha":644,"x_min":0,"x_max":0,"o":"m 239 1000 l 456 1000 l 604 806 l 411 806 l 349 901 l 346 901 l 283 806 l 90 806 "},"¨":{"ha":681,"x_min":0,"x_max":0,"o":"m 85 903 b 192 1008 85 960 124 1008 b 297 903 260 1008 297 960 b 192 797 297 846 260 797 b 85 903 122 797 85 846 m 383 903 b 490 1008 383 960 422 1008 b 596 903 558 1008 596 960 b 490 797 596 846 558 797 b 383 903 421 797 383 846 "},"˙":{"ha":682,"x_min":0,"x_max":0,"o":"m 235 903 b 342 1008 235 960 274 1008 b 447 903 410 1008 447 960 b 342 797 447 846 410 797 b 235 903 272 797 235 846 "},"`":{"ha":860,"x_min":0,"x_max":0,"o":"m 426 806 l 260 806 l 117 1000 l 367 1000 "},"˝":{"ha":751,"x_min":0,"x_max":0,"o":"m 443 1000 l 300 806 l 133 806 l 193 1000 m 749 1000 l 606 806 l 439 806 l 499 1000 "},"¯":{"ha":694,"x_min":0,"x_max":0,"o":"m 550 972 l 550 833 l 153 833 l 153 972 "},"˛":{"ha":708,"x_min":0,"x_max":0,"o":"m 326 -246 b 168 -129 222 -246 168 -204 b 265 0 168 -64 221 -21 l 406 0 b 339 -85 369 -31 339 -56 b 382 -115 339 -106 354 -115 b 439 -106 400 -115 419 -111 l 439 -231 b 326 -246 407 -239 365 -246 "},"˚":{"ha":694,"x_min":0,"x_max":0,"o":"m 347 790 b 206 929 271 790 206 843 b 347 1068 206 1014 271 1068 b 489 929 425 1068 489 1014 b 347 790 489 843 425 790 m 347 867 b 406 929 382 867 406 889 b 347 992 406 969 382 992 b 290 929 314 992 290 969 b 347 867 290 889 314 867 "},"˜":{"ha":694,"x_min":0,"x_max":0,"o":"m 117 825 b 239 1013 117 960 160 1013 b 417 960 303 1013 364 960 b 463 1013 454 960 463 986 l 578 1013 b 456 825 578 876 535 825 b 278 876 392 825 331 876 b 232 825 240 876 232 850 l 117 825 "}}}
